<svg id="Layer_1" data-name="Layer 1" xmlns="http://www.w3.org/2000/svg" viewBox="0 0 566 483"><defs><style>.cls-1{fill:#fd3cb2;}</style></defs><title>01</title><path class="cls-1" d="M288.74,230.41c-.17-.34-4.21-8.22-12.53-8.22-6,0-9.7,4-11.43,6.44h-5.52l2.76-4.79c3-.28,8.3-1.49,11.29-6.67,4.16-7.22-.65-14.65-.85-15a3.25,3.25,0,0,0-2.5-1.43s-9.14-.59-13.38,6.74c-3,5.16-1.37,10.41-.13,13.11L254,224.89c-4.33-8.17-13.91-22-29.26-22-15.55,0-20,7.65-22.38,15.14a3.22,3.22,0,1,0,6.14,1.91c2.15-6.88,5.38-10.61,16.24-10.61,12.28,0,20.4,12.47,23.94,19.31H227.94a3.22,3.22,0,0,0-3.22,3.22c0,17.36-3.95,74-54.71,74a3.23,3.23,0,0,0-2.88,1.78L155.3,331.3a99.87,99.87,0,0,1-12.73-3.07l10.69-14a3.22,3.22,0,0,0-5.12-3.91l-12,15.65c-2.21-.87-4.46-1.83-6.71-3a67.15,67.15,0,0,1-8-4.69l20.87-9.54a3.22,3.22,0,0,0-2.68-5.86l-23.87,10.92a40.45,40.45,0,0,1-10.31-14.42h32.3a3.22,3.22,0,0,0,0-6.44H103.49a42,42,0,0,1-.95-6.44H170a3.22,3.22,0,0,0,1.66-6c-.61-.37-58.13-35.4-62.51-76.07L151.65,247a3.22,3.22,0,1,0,4.55-4.55L109,195.21c.13-3.31.4-6.45.78-9.44l45.13,45.13a3.19,3.19,0,0,0,2.27.95,3.23,3.23,0,0,0,2.28-5.5L111,177.93c.58-3,1.25-5.7,2-8.23l45.12,45.11a3.19,3.19,0,0,0,2.27.95,3.23,3.23,0,0,0,2.28-5.5l-47.45-47.44a84.8,84.8,0,0,1,4-9.37l38.84,38.84h0l41.83,41.83a3.22,3.22,0,0,0,4.55-4.55l-40.81-40.81c.41-13.59,7.18-20.34,11.16-23.1l18,44.86a3.22,3.22,0,0,0,3,2,3.31,3.31,0,0,0,1.19-.23,3.22,3.22,0,0,0,1.79-4.19l-19.3-48.27a3.24,3.24,0,0,0-4.19-1.79c-.66.27-14.56,6.11-17.53,24.77L120.8,145.9a3.23,3.23,0,0,0-5,.49c-.55.83-13.41,20.5-13.41,53.28,0,36.27,38.73,67.72,56.85,80.45H99.22A3.22,3.22,0,0,0,96,283.33a48.67,48.67,0,0,0,2,13.88c0,.1.05.21.1.31a46.61,46.61,0,0,0,14.68,22,3.2,3.2,0,0,0,1.19,1,77.55,77.55,0,0,0,21.58,12,3.22,3.22,0,0,0,1.31.49,100.55,100.55,0,0,0,20,5l.36,0a3.22,3.22,0,0,0,2.88-1.78l12-24c52-1.36,58.55-55.68,59.09-77.21h20.71l4.2,7.27c-1.37,2.1-4.44,7.87-1.57,14,3.52,7.54,12.36,7.87,12.73,7.88h.09a3.19,3.19,0,0,0,2.52-1.22c.24-.29,5.67-7.28,2.16-14.82a13.78,13.78,0,0,0-9.36-7.36l-3.33-5.77h5.52c1.73,2.42,5.47,6.44,11.43,6.44,8.32,0,12.36-7.88,12.53-8.22A3.22,3.22,0,0,0,288.74,230.41Zm-26.58-19.68a7.65,7.65,0,0,1,5.69-3.41,6.84,6.84,0,0,1-5.81,10A7.74,7.74,0,0,1,262.16,210.73ZM260.75,247a6.84,6.84,0,0,1,4.9,10.52,6.84,6.84,0,0,1-4.9-10.52Zm15.46-11.94a7.7,7.7,0,0,1-5.8-3.21,6.83,6.83,0,0,1,11.6,0A7.71,7.71,0,0,1,276.21,235.06Z"/><path class="cls-1" d="M228,222.19a3.22,3.22,0,1,0,0-6.43h0a3.2,3.2,0,0,0-3.2,3.21A3.23,3.23,0,0,0,228,222.19Z"/><path class="cls-1" d="M500.23,193.68a17.63,17.63,0,0,0-17.61,17.62v5.24h-8.48a12,12,0,0,0,.86-4.46v-1a12,12,0,0,0-12-12H402.91V160.36a12,12,0,0,0-12-12h-1a12,12,0,0,0-11.65,9.09H354.91a44,44,0,0,0-44,44v30.35a35.06,35.06,0,0,0,35,35h9.94a48,48,0,0,0,17.4,14.6,45.34,45.34,0,0,0-7.61,4.08,26,26,0,0,0-13.31-3.65,26.26,26.26,0,1,0,19.44,8.68,37.82,37.82,0,0,1,37.62,0,26.14,26.14,0,1,0,6.13-5,45.34,45.34,0,0,0-7.61-4.08,48,48,0,0,0,17.4-14.6h9.94a35.06,35.06,0,0,0,35-35v-7.7H486.4a3.77,3.77,0,0,0,3.77-3.77v-9a10.08,10.08,0,0,1,10.06-10.08,3.77,3.77,0,0,0,0-7.54ZM371,308.07a18.66,18.66,0,1,1-11.79-17.37,45.15,45.15,0,0,0-10.47,15.59,3.77,3.77,0,0,0,7,2.81,37.62,37.62,0,0,1,9.9-14.12A18.58,18.58,0,0,1,371,308.07Zm76.51,0A18.65,18.65,0,1,1,415.55,295a37.62,37.62,0,0,1,9.9,14.12,3.78,3.78,0,0,0,3.5,2.37,3.69,3.69,0,0,0,1.41-.28,3.76,3.76,0,0,0,2.09-4.9A45.15,45.15,0,0,0,422,290.7a18.64,18.64,0,0,1,25.5,17.37ZM463,206.58a4.47,4.47,0,0,1,4.47,4.46v1a4.47,4.47,0,0,1-4.47,4.47H402.91v-10H463Zm-77.56-46.22a4.46,4.46,0,0,1,4.46-4.46h1a4.47,4.47,0,0,1,4.47,4.46v56.18h-9.94Zm-67,41.07A36.49,36.49,0,0,1,354.91,165h23v51.56H318.46ZM390.58,278c-9,0-17.86-4.07-24.82-11.15H415.4C408.44,273.9,399.55,278,390.58,278Zm72.12-46.19a27.51,27.51,0,0,1-27.45,27.5H345.91a27.51,27.51,0,0,1-27-22.41H433.57a3.77,3.77,0,1,0,0-7.54H318.46v-5.25H462.7Z"/></svg>