<svg id="Layer_1" data-name="Layer 1" xmlns="http://www.w3.org/2000/svg" viewBox="0 0 566 483"><defs><style>.cls-1{fill:#fd3cb2;}</style></defs><title>02</title><path class="cls-1" d="M261.41,82.79a27.17,27.17,0,0,0-27.1,27.1v.72a27,27,0,0,0-43.15,21.76v176a91.84,91.84,0,0,0,183.68,0V235.44a27,27,0,0,0-43.16-21.76V139.33a27,27,0,0,0-43.16-21.76v-7.68a27.16,27.16,0,0,0-27.11-27.1Zm0,11a15.9,15.9,0,0,1,16.07,16.06V236.64a5.52,5.52,0,1,0,11,.18V139.33a16.06,16.06,0,0,1,32.11,0v112c0,.21,0,.43,0,.64a27,27,0,0,0,1.78,9,26.94,26.94,0,0,0-17.87-6.81H218.25a26.9,26.9,0,0,0-16.05,5.34V132.37a16.06,16.06,0,0,1,32.11-.07V244a5.53,5.53,0,0,0,11.05.15V214.28h0V109.88a15.9,15.9,0,0,1,16.06-16Zm86.32,125.56a15.9,15.9,0,0,1,16.07,16.05v15.93a16.06,16.06,0,1,1-32.12,0V235.44A15.89,15.89,0,0,1,347.73,219.39ZM218.25,265.26h86.32a16.06,16.06,0,1,1,0,32.11H247.7a5.53,5.53,0,0,0-.18,11.05h57a27,27,0,0,0,26.68-25,5.56,5.56,0,0,0,.43-2.14,26.75,26.75,0,0,0-1.81-9.62,26.88,26.88,0,0,0,33.93,1.44v35.24a80.8,80.8,0,0,1-161.6,0V281.32a15.9,15.9,0,0,1,16.05-16.06Z"/></svg>