<svg id="Layer_1" data-name="Layer 1" xmlns="http://www.w3.org/2000/svg" viewBox="0 0 566 483"><defs><style>.cls-1{fill:#fd3cb2;}</style></defs><title>03</title><path class="cls-1" d="M457.87,164.83a5.18,5.18,0,0,0-5.18,5.19v18a4.54,4.54,0,0,1-9.07,0v-6.94a27.4,27.4,0,0,0-46.78-19.38,27.93,27.93,0,0,0-2.84,3.33,27.93,27.93,0,0,0-2.84-3.33,27.4,27.4,0,0,0-46.78,19.38v6.94a4.54,4.54,0,0,1-9.07,0V170a5.19,5.19,0,0,0-5.19-5.19,24.65,24.65,0,0,0-24.62,24.63V325.54a5.19,5.19,0,0,0,10.37,0V218.86a46.84,46.84,0,0,0,78.13-8,46.84,46.84,0,0,0,88.5-21.41A24.65,24.65,0,0,0,457.87,164.83Zm-105.53,61.1a36.46,36.46,0,0,1-36.47-36.48,14.27,14.27,0,0,1,9.07-13.27v11.89a14.91,14.91,0,0,0,29.81,0v-6.94a17,17,0,1,1,34.06,0v8.34A36.51,36.51,0,0,1,352.34,225.93Zm109.11-10.68a36.47,36.47,0,0,1-62.26-25.79v-8.33a17,17,0,1,1,34.06,0v6.94a14.91,14.91,0,0,0,29.81,0V176.18a14.27,14.27,0,0,1,9.07,13.28A36.23,36.23,0,0,1,461.45,215.25Z"/><path class="cls-1" d="M202.25,328.72H188.94a17.22,17.22,0,0,0-2.62-.63,87.51,87.51,0,0,1-75-62.61c-1.7-5.94-2.55-12.12-3.8-18.2V234.75a17.3,17.3,0,0,0,.64-2.6,81.26,81.26,0,0,1,8.58-29.77,6.84,6.84,0,0,0,.28-6.17,54.43,54.43,0,0,1-3.72-20.5c.11-6,.87-14.71,4.18-19.88,1.31-2.05,3.79-3.56,6.15-3,4.16,1,4.7,6.86,6.6,10,.64,1.05,8,10.61,8.91,10.05,5.1-3.31,9.6-6.66,14.49-9.27a81.82,81.82,0,0,1,15.66-6.71c6.93-2,14.15-3,21.24-4.39h10.18c5.24.89,10.54,1.53,15.71,2.73,13.12,3.07,24.76,9.26,35.36,17.89.5.41,7.06-7.29,7.65-8.08,2.22-3,3.47-6.14,5.06-9.46.9-1.89,2.76-3.69,4.81-3.27a5.38,5.38,0,0,1,3,2.34c6.22,8.46,6.62,21,4.81,30.93-.85,4.69-3.83,9.32-3.51,13.8.39,5.34,4.17,10.79,5.83,15.87a83.72,83.72,0,0,1,3.71,17.77c3.32,34-14.71,67.75-44.44,84.3a88,88,0,0,1-18.18,7.59C214.55,326.67,208.34,327.48,202.25,328.72Zm64.75-155c-3.26,3.08-6.07,5.9-9.07,8.5-5.37,4.68-6.9,4.52-12.34,0-18.71-15.63-40.08-21.58-64.15-17.3a73.68,73.68,0,0,0-36.39,17.76c-4.52,4-6.45,4.07-11.17.09-3.23-2.74-6.23-5.75-9.7-9a39.38,39.38,0,0,0,3.93,21.11,9.24,9.24,0,0,1-.21,9.2,75.17,75.17,0,0,0-8.76,46,77,77,0,0,0,86.37,66.91c53.46-7,83.41-65.06,58-112.54a9.94,9.94,0,0,1-.27-9.91A38.72,38.72,0,0,0,267,173.77Z"/><path class="cls-1" d="M231.81,221.05c6.8,5.42,9.45,11.88,6.59,19.93a15.76,15.76,0,0,1-15,10.53,16.3,16.3,0,0,1-15.46-9.91c-2.6-6.2-1.21-14,3.89-18.33,7.93-6.76,16.12-13.22,24.28-19.71,2.61-2.07,5.88-1.7,7.66.69,2,2.72,1.74,5.42-.81,7.63C239.41,214.94,235.73,217.84,231.81,221.05Zm-3.09,14.16a5.79,5.79,0,0,0-5.47-5.6,5.68,5.68,0,0,0-5.67,5.34,5.75,5.75,0,0,0,5.61,5.83A5.9,5.9,0,0,0,228.72,235.21Z"/><path class="cls-1" d="M159.34,221c-3.69-3-7.17-5.74-10.54-8.6-3.05-2.58-3.49-5.62-1.34-8.15s5.23-2.56,8.3-.11Q166.92,213,178,222c7.59,6.14,8.72,16.83,2.57,23.92a16.58,16.58,0,0,1-24,.87c-6.77-6.68-6.42-17.15.8-24Zm14.28,14a5.69,5.69,0,0,0-5.63-5.38,5.58,5.58,0,1,0,.36,11.16A5.79,5.79,0,0,0,173.62,235Z"/><path class="cls-1" d="M193.44,295.67c-12.27-.23-24.73-5-35.24-14.7-3.49-3.22-4-6.46-1.43-9.07s5.32-2.21,8.89,1a44.81,44.81,0,0,0,59.83.05c3.7-3.34,6.74-3.61,9.16-.83,2.22,2.56,1.76,5.55-1.34,8.55C223.52,290.17,209.6,295.68,193.44,295.67Z"/></svg>