<svg id="Layer_1" data-name="Layer 1" xmlns="http://www.w3.org/2000/svg" viewBox="0 0 566 483"><defs><style>.cls-1{fill:#fd3cb2;}</style></defs><title>04</title><path class="cls-1" d="M414,210.39a112.17,112.17,0,0,1-21.19-18.82,2.26,2.26,0,0,0-.11-.37l-16.71-46.78a14.93,14.93,0,0,0-11.07-9.58l-12.58-2.51a3.54,3.54,0,0,0-4.16,2.73c0,.16-3.15,14.4-11.63,22.51-8.49-8.11-11.6-22.35-11.63-22.5a3.54,3.54,0,0,0-4.16-2.74l-12.58,2.51a14.92,14.92,0,0,0-11.07,9.58L280.35,191.2a2.26,2.26,0,0,0-.11.37,111.81,111.81,0,0,1-21.19,18.82,3.53,3.53,0,0,0,.88,6.28,11.16,11.16,0,0,0,7.7-.15,4.3,4.3,0,0,1,3.32-.17,4.35,4.35,0,0,1,2.57,2.12,11.58,11.58,0,0,0,13.8,4.57,4.62,4.62,0,0,1,5.91,2,11.18,11.18,0,0,0,6.1,4.72,3.54,3.54,0,0,0,4.45-4.52A111.61,111.61,0,0,1,298,197.3l13.51-26.46c.28,1.6.59,3.15.9,4.68a65.07,65.07,0,0,1,1.7,13.1,24.48,24.48,0,0,1-.81,6.27c-.72,3.17-1.61,7.11-1.61,16.37,0,3.07.49,7.53,1.05,12.71.62,5.64,1.31,12,1.36,16.91-1.28,3.74-9.91,27.46-29.17,47.14a3.54,3.54,0,0,0,2.53,6,3.74,3.74,0,0,1,2.74,1.15c.27.21.57.44.9.67-1.51,7.17-7.64,31-25,48.77a3.53,3.53,0,0,0,2.52,6,9.23,9.23,0,0,0,6.67-2.72,2.8,2.8,0,0,1,2.35-1.06,3.73,3.73,0,0,1,2.74,1.16,10.82,10.82,0,0,0,14.12,0,3.84,3.84,0,0,1,5.5,0,10.84,10.84,0,0,0,14.13,0,3.85,3.85,0,0,1,5.51,0,10.85,10.85,0,0,0,14.14,0,3.84,3.84,0,0,1,5.5,0,10.82,10.82,0,0,0,14.12,0,3.83,3.83,0,0,1,5.49,0A10.81,10.81,0,0,0,373,348a3.82,3.82,0,0,1,5.47,0,10.82,10.82,0,0,0,14.12,0,3.84,3.84,0,0,1,5.5,0,10.93,10.93,0,0,0,5.52,2.52,3.86,3.86,0,0,0,.84.1h.7a3.54,3.54,0,0,0,.92-7c-16.71-17.67-22.65-40.8-24.13-47.83.32-.23.61-.45.88-.66a3.77,3.77,0,0,1,2.76-1.15,3.54,3.54,0,0,0,2.53-6c-19.21-19.63-27.89-43.4-29.17-47.14,0-4.91.74-11.27,1.36-16.91.56-5.18,1.05-9.64,1.05-12.71,0-9.26-.89-13.2-1.61-16.37a24.48,24.48,0,0,1-.81-6.27,65.07,65.07,0,0,1,1.7-13.1c.31-1.53.62-3.08.9-4.68L375,197.3a110.58,110.58,0,0,1-5.79,27.89,3.53,3.53,0,0,0,4.45,4.52,11.18,11.18,0,0,0,6.1-4.72,4.59,4.59,0,0,1,5.91-2,11.61,11.61,0,0,0,13.8-4.57,4.4,4.4,0,0,1,2.57-2.13,4.35,4.35,0,0,1,3.32.18,11.16,11.16,0,0,0,7.7.15,3.53,3.53,0,0,0,.88-6.28Zm-32-11.25,6.21-2c.45.52,1,1.13,1.64,1.82-.31.39-.58.76-.82,1.11a4.61,4.61,0,0,1-5.91,1.95c-.41-.13-.86-.27-1.35-.4C381.84,200.64,381.92,199.83,382,199.14Zm-90.94,0c.05.69.13,1.5.23,2.43-.49.13-.94.27-1.35.4A4.61,4.61,0,0,1,284,200c-.24-.35-.51-.72-.82-1.11.63-.69,1.19-1.3,1.64-1.82Zm1.85,17a11.19,11.19,0,0,0-7.71.15,4.6,4.6,0,0,1-5.91-2,11.18,11.18,0,0,0-6.09-4.71c-.35-.12-.68-.21-1-.29,2.24-1.87,4.24-3.68,6-5.34l.11.14a11.23,11.23,0,0,0,6.09,4.72,11.5,11.5,0,0,0,3.62.61,12.91,12.91,0,0,0,4.09-.76l.19-.06c.41,2.38.94,5,1.63,7.87C293.57,216.39,293.23,216.27,292.88,216.15ZM334.68,203a3.5,3.5,0,0,0,3.64,0l14.08-8.44c.13.65.27,1.28.41,1.92.67,3,1.44,6.34,1.44,14.81,0,2.68-.5,7.18-1,11.94-.06.49-.11,1-.17,1.5H319.93c-.06-.5-.11-1-.16-1.5-.52-4.76-1-9.26-1-11.94,0-8.47.77-11.84,1.44-14.81.14-.64.29-1.27.41-1.92Zm-13.6,34.94c-.09-2-.25-4-.43-6.14h31.7c-.18,2.1-.34,4.17-.43,6.14Zm-.93,7.07h32.7a142.62,142.62,0,0,0,13.52,26.9l-.48,0a10.69,10.69,0,0,0-7.07,2.62,3.84,3.84,0,0,1-5.5,0,10.82,10.82,0,0,0-14.12,0,3.84,3.84,0,0,1-5.49,0,10.79,10.79,0,0,0-14.12,0,3.83,3.83,0,0,1-5.48,0,10.64,10.64,0,0,0-7.06-2.62l-.42,0A142.62,142.62,0,0,0,320.15,245Zm31.72-58.39-15.37,9.22-15.37-9.22a61.5,61.5,0,0,0-.82-7.33l14.37,8.62a3.56,3.56,0,0,0,3.64,0l14.37-8.62A61.5,61.5,0,0,0,351.87,186.59Zm23.2,111.2a117.17,117.17,0,0,0,11.35,30.57,3.5,3.5,0,0,1-.92.1,3.72,3.72,0,0,1-2.74-1.15,10.82,10.82,0,0,0-14.12,0,3.72,3.72,0,0,1-2.73,1.15,3.76,3.76,0,0,1-2.75-1.15,10.82,10.82,0,0,0-14.12,0,3.84,3.84,0,0,1-5.48,0,10.84,10.84,0,0,0-14.13,0,3.89,3.89,0,0,1-5.52,0,10.85,10.85,0,0,0-14.14,0,3.86,3.86,0,0,1-5.5,0,10.82,10.82,0,0,0-14.12,0,3.76,3.76,0,0,1-2.75,1.15,4.12,4.12,0,0,1-.84-.07,117.4,117.4,0,0,0,11.37-30.6,10.75,10.75,0,0,0,6.38-2.61,3.85,3.85,0,0,1,5.49,0,10.81,10.81,0,0,0,14.11,0,3.84,3.84,0,0,1,5.48,0,10.82,10.82,0,0,0,14.12,0,3.86,3.86,0,0,1,5.5,0,10.84,10.84,0,0,0,14.13,0,3.86,3.86,0,0,1,5.51,0A10.77,10.77,0,0,0,375.07,297.79Zm13.18,44.61a3.76,3.76,0,0,1-2.75,1.15,3.68,3.68,0,0,1-2.74-1.15,10.82,10.82,0,0,0-14.12,0,3.68,3.68,0,0,1-2.73,1.15,3.72,3.72,0,0,1-2.75-1.15,10.82,10.82,0,0,0-14.12,0,3.84,3.84,0,0,1-5.48,0,10.84,10.84,0,0,0-14.13,0,3.89,3.89,0,0,1-5.52,0,10.85,10.85,0,0,0-14.14,0,3.86,3.86,0,0,1-5.5,0,10.82,10.82,0,0,0-14.12,0,3.76,3.76,0,0,1-2.75,1.15,3.68,3.68,0,0,1-2.74-1.15,11,11,0,0,0-5.37-2.5q1.93-2.64,3.63-5.33a10.2,10.2,0,0,0,4.48,1,10.63,10.63,0,0,0,7.06-2.62,3.86,3.86,0,0,1,5.5,0,10.85,10.85,0,0,0,14.13,0,3.85,3.85,0,0,1,5.51,0,10.88,10.88,0,0,0,14.14,0,3.85,3.85,0,0,1,5.5,0,10.82,10.82,0,0,0,14.12,0,3.85,3.85,0,0,1,5.49,0,10.82,10.82,0,0,0,14.12,0,3.83,3.83,0,0,1,5.47,0,10.63,10.63,0,0,0,7.06,2.62,10.23,10.23,0,0,0,4.55-1c1.14,1.79,2.35,3.58,3.65,5.35A10.86,10.86,0,0,0,388.25,342.4Zm-9.77-52.83a3.86,3.86,0,0,1-5.52,0,10.86,10.86,0,0,0-14.14,0,3.86,3.86,0,0,1-5.5,0,10.82,10.82,0,0,0-14.12,0,3.85,3.85,0,0,1-5.49,0,10.82,10.82,0,0,0-14.12,0,3.72,3.72,0,0,1-2.73,1.15,3.76,3.76,0,0,1-2.75-1.15,10.82,10.82,0,0,0-14.12,0,3.84,3.84,0,0,1-5.48,0l-.8-.6c1.89-2.12,3.68-4.27,5.35-6.41a11,11,0,0,0,5.25-2.48,3.85,3.85,0,0,1,5.49,0,10.81,10.81,0,0,0,14.11,0,3.84,3.84,0,0,1,5.48,0,10.82,10.82,0,0,0,14.12,0,3.86,3.86,0,0,1,5.5,0,10.84,10.84,0,0,0,14.13,0,3.88,3.88,0,0,1,5.51,0,11.09,11.09,0,0,0,5.29,2.49c1.68,2.13,3.45,4.27,5.35,6.39C379,289.18,378.72,289.39,378.48,289.57ZM358.31,155a3.53,3.53,0,0,0-2.71,3.44,63.29,63.29,0,0,1-1.13,11.5l-18,10.78-18-10.78a63.29,63.29,0,0,1-1.13-11.5,3.54,3.54,0,0,0-6.69-1.61l-18.07,35.39L288,190.7l15.68-43.91a7.81,7.81,0,0,1,5.8-5l9.31-1.86c1.75,5.94,6.31,18.19,15.55,25.12a3.54,3.54,0,0,0,4.24,0c9.24-6.93,13.79-19.18,15.55-25.12l9.31,1.86a7.83,7.83,0,0,1,5.8,5L385,190.7l-4.6,1.52-18.07-35.39A3.53,3.53,0,0,0,358.31,155Zm41.52,54.63a11.18,11.18,0,0,0-6.09,4.71,4.6,4.6,0,0,1-5.91,2,12.61,12.61,0,0,0-4.09-.77,11.54,11.54,0,0,0-3.62.62c-.35.12-.69.24-1,.37.68-2.84,1.21-5.49,1.62-7.87l.2.06a12.91,12.91,0,0,0,4.09.76,11.5,11.5,0,0,0,3.62-.61,11.23,11.23,0,0,0,6.09-4.72l.11-.14c1.74,1.66,3.74,3.47,6,5.34C400.51,209.42,400.18,209.51,399.83,209.63Z"/><path class="cls-1" d="M237.18,241.57c-.79-.07-19.26-.95-31.32,11.11a31.86,31.86,0,0,0-5.31,7.36v-27.6a31.89,31.89,0,0,0,31.85-31.85V160.75a9.14,9.14,0,0,1,2.67-6.44l5.1-5.1a4.55,4.55,0,0,0-3.86-7.72l-13,1.86v-6.46a4.55,4.55,0,0,0-4.55-4.55,74.45,74.45,0,0,0-24.47,4,59.1,59.1,0,0,0-21-4,4.55,4.55,0,0,0-4.55,4.55v6.46l-13-1.86a4.55,4.55,0,0,0-3.86,7.72l5.1,5.1a9.16,9.16,0,0,1,2.67,6.44v39.84a31.89,31.89,0,0,0,31.85,31.85V346.19a4.55,4.55,0,1,0,9.1,0V287c1.08.06,2.14.09,3.19.09,11.12,0,20.07-3.31,26.62-9.86,12-12.05,11.15-30.54,11.11-31.32A4.55,4.55,0,0,0,237.18,241.57Zm-23-100v3.27c-1.17.25-2.34.47-3.49.79l-2-1.47c-.76-.58-1.63-1-2.43-1.53A65.42,65.42,0,0,1,214.2,141.59Zm4.74,11.58,6.48-.93a18.37,18.37,0,0,0-2.12,8.51v39.84a57,57,0,0,0-19.36-42.48A45.8,45.8,0,0,1,218.94,153.17ZM177.8,141.66a50.32,50.32,0,0,1,22.73,8c-1.52.77-3,1.64-4.48,2.55A56.31,56.31,0,0,0,177.8,145v-3.32Zm13.65,81.68a22.77,22.77,0,0,1-22.75-22.75V160.75a18.37,18.37,0,0,0-2.12-8.51l6.48.93a48.14,48.14,0,0,1,41.14,47.42A22.77,22.77,0,0,1,191.45,223.34Zm32.48,47.4c-4.52,4.52-10.83,6.93-18.81,7.18.26-7.95,2.65-14.25,7.14-18.76,6.05-6.09,14.75-7.84,20-8.34C231.76,256,230,264.65,223.93,270.74Z"/></svg>