<svg id="Layer_1" data-name="Layer 1" xmlns="http://www.w3.org/2000/svg" viewBox="0 0 566 483"><defs><style>.cls-1{fill:#fd3cb2;}</style></defs><title>05</title><path class="cls-1" d="M462.75,302.86a3.25,3.25,0,0,0-3.25,3.25v30.56a1.8,1.8,0,0,1-1.8,1.79H440.23v-64a3.25,3.25,0,0,0-6.5,0v64H398.55l10.2-11.22a5.82,5.82,0,0,0,1.41-4.67.3.3,0,0,0,0-.1l-9.71-57.41,2.62-3.94c1.44,1,2.56,2,4.65,2a5.68,5.68,0,0,0,5.09-3.15h0L423,239.45l23.35,9c.84.36,13.11,5.89,13.11,20.47v22a3.25,3.25,0,1,0,6.5,0V269c0-19.22-16.46-26.2-17.16-26.49l-.06,0-38.86-15v-9.12a30.4,30.4,0,0,0,11.53-20,14,14,0,0,0,8.26-3.37,13.78,13.78,0,0,0,1.44-19.47v-12a40.28,40.28,0,1,0-80.56,0v12.36a13,13,0,0,0-3.35,8.7A13.79,13.79,0,0,0,352,194.88a14.06,14.06,0,0,0,8.26,3.37,30.18,30.18,0,0,0,12.19,20.52v8.63l-38.82,15-.06,0c-.7.29-17.15,7.27-17.15,26.49v67.71a8.3,8.3,0,0,0,8.29,8.29h31a3.25,3.25,0,0,0,0-6.5h-7v-64a3.26,3.26,0,0,0-6.51,0v64H324.74a1.79,1.79,0,0,1-1.79-1.79V269c0-14.63,12.35-20.14,13.1-20.47l23.33-9L369.63,260a5.7,5.7,0,0,0,5.1,3.15c2.08,0,3.18-1,4.65-2l2.62,3.94-9.72,57.41s0,.06,0,.1a5.82,5.82,0,0,0,1.4,4.67l10.2,11.22h-13a3.25,3.25,0,0,0,0,6.5H457.7a8.3,8.3,0,0,0,8.3-8.29V306.11A3.26,3.26,0,0,0,462.75,302.86ZM417,237.09l-9.55,19.15-11.49-8.16c2.68-3.32-.46.56,11.8-14.57Zm-19.21,20.27-2.48,3.73h-8.1l-2.48-3.73,6.53-4.64ZM379,228.45v-6.09a32.82,32.82,0,0,0,12.29,2.33,30.38,30.38,0,0,0,12.15-2.53v6.31l-12.21,15.08Zm49-44a7.3,7.3,0,0,1-2.53,5.52,7.57,7.57,0,0,1-3.76,1.73V177.17A7.36,7.36,0,0,1,428,184.43Zm-68,7.25a7.35,7.35,0,0,1-6.28-7.25c0-3.48,2.88-6.31,6.28-7.09Zm.18-21a16.27,16.27,0,0,0-3.11.7v-8a33.78,33.78,0,1,1,67.56,0v7.82a14.2,14.2,0,0,0-2.93-.57c0-3.13,0-2.53-10.23-13.56a5.78,5.78,0,0,0-7.38-.9c-11.33,7.4-25.14,11.11-37.88,10.2A5.77,5.77,0,0,0,360.2,170.71Zm6.33,23.53V172.89a69.47,69.47,0,0,0,40.62-10.95c4.7,5.05,7.25,7.7,8.07,8.71v23.59a24,24,0,0,1-24,23.95C376.45,218.19,366.53,206.7,366.53,194.24Zm8.5,62-9.56-19.15,9.23-3.57,11.8,14.57Zm3.72,66.93,9.41-55.58h6.1l9.41,55.58-12.46,13.7Z"/><path class="cls-1" d="M255.58,274.77a10,10,0,0,0-5.62-6.53l-11.37-5a8.88,8.88,0,0,0-4.15-6.4l-1.92-1.17a69.15,69.15,0,0,0-18.17-7.75A11.13,11.13,0,0,0,204,250.41L190.27,233a.4.4,0,0,1-.08-.23.35.35,0,0,1,.12-.27.33.33,0,0,1,.27-.11,18.12,18.12,0,0,0,14.52-6l19.43-21.71a16.22,16.22,0,0,0-1.22-22.8L216.87,176A10.1,10.1,0,0,0,200,183.52a.19.19,0,0,1-.14.19l-2.65.85a.28.28,0,0,1-.18,0,7.81,7.81,0,0,1-2.2-9.8,1.86,1.86,0,0,1,.29-.44l3.6-4a14,14,0,0,0,2-2.8,2.45,2.45,0,0,1,3.14-1.08l11.66,5.16a9.32,9.32,0,0,0,11.22-3,9.25,9.25,0,0,0-2.24-13.13l-15-10.27a2.93,2.93,0,0,1-1.05-3.52,2.82,2.82,0,0,1,1.08-1.31L221,132.7a1.7,1.7,0,0,0,.5-.5c3.33-5.16,1.05-10.75-3.5-12.49l-8.91-3.4a4.74,4.74,0,0,0-3.55.07l-10.41,4.41a1,1,0,0,0-.53.52c-2.29,5.31,2.17,8.74,5.77,7.22l2.28-1a13,13,0,0,1,9.73-.18l.06,0-8,5.36a11.94,11.94,0,0,0-4.45,5.45,12.14,12.14,0,0,0,4.35,14.57l15,10.26s0,0,0,.07a.09.09,0,0,1,0,.08.1.1,0,0,1-.12,0l-11.66-5.16a11.65,11.65,0,0,0-14.94,5.16,4.59,4.59,0,0,1-.67,1l-2.78,3.06a16.74,16.74,0,0,0,1.7,24.08,10,10,0,0,0,9.51,1.85l1.8-.57a10.11,10.11,0,0,0,7-9.18.91.91,0,0,1,.93-.87.93.93,0,0,1,.62.23l6.44,5.82a7,7,0,0,1,.53,9.88L198.27,220.2a9,9,0,0,1-7.21,3,9.54,9.54,0,0,0-8,15.44l4.92,6.23-9.53-4.63-13.53-18.52a4.64,4.64,0,0,0-5.79-1.41,1.54,1.54,0,0,1-2.22-1.27l-1.3-18.4a4.51,4.51,0,0,0-.87-2.37L144,183.44a4.8,4.8,0,0,0-.95-1c-.85-.64-8.47-6.25-14.64-7.3a11.68,11.68,0,0,0-10.32,3h-6.7c-.88-1.22-2.15-3.73-2.15-8.07,0-4.73,1.18-7.41,2.28-8.35a2,2,0,0,1,1.8-.4c5.51.92,23,3.68,23.18,3.71a4.78,4.78,0,0,0,1.51,0l12.53-2.22a1,1,0,0,0,.75-.62l5.14-14A3,3,0,0,1,158,146.5l9.77-4.15a1,1,0,0,0,.53-.52c2.29-5.31-2.17-8.74-5.77-7.21l-3.73,1.58a23.21,23.21,0,0,0-12.68,13.32l-1.88,5.11-7.14,1.26c-3.43-.55-17.53-2.78-22.35-3.58a11.16,11.16,0,0,0-9.22,2.45c-3.62,3.06-5.52,8.36-5.52,15.34,0,11.3,6,15.9,6.71,16.39a4.56,4.56,0,0,0,2.65.84h10.8a4.58,4.58,0,0,0,4-2.38s.68-1.06,2.62-.73c2.81.48,7.47,3.29,10.14,5.2l9.6,13.17.83,11.72a16,16,0,0,0,11.1,14.12l13.23,18.12a4.55,4.55,0,0,0,1.69,1.42l25.3,12.31a4.71,4.71,0,0,1-.95,1.71,15,15,0,0,0-3.16,7.78c-.7,5.89,1.76,9.57,3.56,12.26a16.07,16.07,0,0,1,1.92,3.41,12.24,12.24,0,0,0,5.53,6.41,10.44,10.44,0,0,1,1,.67.87.87,0,0,1,0,.18c.07,2.36-1.84,15.23-3.24,24.63-1.33,8.9-2.47,16.59-2.62,19.32-.44,8.16,8.38,14,9.39,14.62a4.56,4.56,0,0,0,2.45.71,4.8,4.8,0,0,0,4.45-3.17,1.37,1.37,0,0,0,.07-.34l.49-7.65c.82-3.39,1.84-7.34,2.3-8.74,1.36-1.6,3.7-4.77,8.55-11.31,5-6.73,10.59-14.37,12.9-17.53a1.13,1.13,0,0,1,.48-.36,12.83,12.83,0,0,0,7.85-8.7l2-7.67,2.34-3.26A10,10,0,0,0,255.58,274.77Zm-36.8,58.58a8.69,8.69,0,0,0,.89-.91A4.21,4.21,0,0,1,218.78,333.35ZM246.62,278l-2.82,3.94a4.36,4.36,0,0,0-.71,1.49l-2.25,8.47a3.66,3.66,0,0,1-2,2.39,14.61,14.61,0,0,0-5.55,4.55C222.5,313.54,214.72,324,213,326.23c-1,.89-1.61,2.36-2.32,4.94.48-3.51,1.15-8,1.81-12.42,2.14-14.36,3.43-23.29,3.34-26.26-.15-5.06-3.46-7.16-5.23-8.3-1.26-.8-1.58-1.06-1.83-1.74a23.58,23.58,0,0,0-2.94-5.44c-1.65-2.47-2.37-3.66-2.08-6.09a6,6,0,0,1,1.46-3.45,12.49,12.49,0,0,0,2.79-7.4,4.3,4.3,0,0,0,.39-.92c.64-.69,1.25-1.31,1.81-1.85a1.93,1.93,0,0,1,1.84-.49,60,60,0,0,1,15.76,6.73l1.77,1.08a8.81,8.81,0,0,0,5.18,7l11.56,5.12a.82.82,0,0,1,.48.56A.83.83,0,0,1,246.62,278Z"/><path class="cls-1" d="M185.83,127.9a4.56,4.56,0,0,0-6.48,0,4.58,4.58,0,0,0,3.24,7.82,4.58,4.58,0,0,0,3.24-7.82Z"/><path class="cls-1" d="M280.67,132a20.62,20.62,0,0,0-21.43-9.38L240,126.37a3.9,3.9,0,0,0-.67.18l-7.78,2.77A12.45,12.45,0,0,0,233,153.2a4.3,4.3,0,0,1,2.94,2.36l3.37,7.2a.54.54,0,0,1,0,.51,9.71,9.71,0,0,0,0,9.8l6.15,10.61a7.1,7.1,0,0,0,12.77-1l0-.09a26.91,26.91,0,0,1,12.58-14.12,21,21,0,0,0,10.67-13.69l1.71-7.05A20.48,20.48,0,0,0,280.67,132Zm-6.39,13.55-1.71,7a11.88,11.88,0,0,1-6,7.74,36,36,0,0,0-15.2,15.26l-4.14-7.14a.56.56,0,0,1,0-.56,9.73,9.73,0,0,0,.42-9l-3.37-7.2a13.51,13.51,0,0,0-9.25-7.42,3.25,3.25,0,0,1-2.57-3.2,3.29,3.29,0,0,1,2.18-3.1l7.46-2.65L261,131.65a11.45,11.45,0,0,1,13.3,13.93Z"/></svg>