<svg id="Layer_1" data-name="Layer 1" xmlns="http://www.w3.org/2000/svg" viewBox="0 0 566 483"><defs><style>.cls-1{fill:#fd3cb2;}</style></defs><title>06</title><path class="cls-1" d="M331.2,308.84a4.51,4.51,0,0,1,3,3l7.47,24a11.45,11.45,0,0,0,9.18,7.93,14.75,14.75,0,0,0,1.87.16A11.32,11.32,0,0,0,362,339l14.55-20.55a4.68,4.68,0,0,1,3.65-1.94h.08l25.14.31a11.56,11.56,0,0,0,9.41-18.44l-15-20.15a4.39,4.39,0,0,1-.62-4.13l8.09-23.81a11.33,11.33,0,0,0-2.8-11.83,11.48,11.48,0,0,0-11.83-2.8l-23.88,8.25a4.59,4.59,0,0,1-4.13-.62l-20.15-15a11.56,11.56,0,0,0-18.44,9.42l.31,25.13a4.48,4.48,0,0,1-1.95,3.73l-20.54,14.55a11.51,11.51,0,0,0,3.19,20.39ZM308,286.67l20.54-14.55a11.63,11.63,0,0,0,4.9-9.57l-.31-25.14a4.38,4.38,0,0,1,2.49-4,5.29,5.29,0,0,1,2.1-.55,4.55,4.55,0,0,1,2.72.94l20.16,15a11.67,11.67,0,0,0,10.58,1.71L395,242.39a4.54,4.54,0,0,1,5.76,5.76L392.67,272a11.25,11.25,0,0,0,1.72,10.58l15,20.16a4.37,4.37,0,0,1,.39,4.74,4.47,4.47,0,0,1-4,2.49l-25.14-.31h-.15a11.45,11.45,0,0,0-9.42,4.9l-14.55,20.55a4.53,4.53,0,0,1-4.36,1.86,4.45,4.45,0,0,1-3.57-3.11l-7.47-24a11.3,11.3,0,0,0-7.55-7.54l-24-7.47a4.34,4.34,0,0,1-3.11-3.58A4,4,0,0,1,308,286.67Z"/><path class="cls-1" d="M419.52,170a3.48,3.48,0,0,0-5,0l-56.73,56.72a3.48,3.48,0,0,0,0,5,3.55,3.55,0,0,0,5,0l56.73-56.72A3.48,3.48,0,0,0,419.52,170Z"/><path class="cls-1" d="M428.86,165.59,445.43,149a3.52,3.52,0,0,0-5-5L424,160.61a3.48,3.48,0,0,0,0,5,3.49,3.49,0,0,0,4.91,0Z"/><path class="cls-1" d="M416.25,283.79a3.41,3.41,0,0,0,2.49-1l31.13-31.13a3.52,3.52,0,0,0-5-5L413.76,277.8a3.48,3.48,0,0,0,0,5A3.41,3.41,0,0,0,416.25,283.79Z"/><path class="cls-1" d="M489.08,202.55l-29,29a3.48,3.48,0,0,0,0,5,3.57,3.57,0,0,0,5,0l29-29a3.52,3.52,0,0,0-5-5Z"/><path class="cls-1" d="M411.66,234.84a3.41,3.41,0,0,0,2.49-1l13.46-13.46a3.52,3.52,0,0,0-5-5l-13.46,13.46a3.48,3.48,0,0,0,0,5A3.41,3.41,0,0,0,411.66,234.84Z"/><path class="cls-1" d="M494.53,148.47a3.48,3.48,0,0,0-5,0l-56,56a3.48,3.48,0,0,0,0,5,3.57,3.57,0,0,0,5,0l56-56A3.48,3.48,0,0,0,494.53,148.47Z"/><path class="cls-1" d="M454.53,139.92l5.92-5.92a3.52,3.52,0,1,0-5-5l-5.92,5.92a3.48,3.48,0,0,0,0,5,3.41,3.41,0,0,0,2.49,1A3.75,3.75,0,0,0,454.53,139.92Z"/><path class="cls-1" d="M512.19,125.91l-13.46,13.46a3.48,3.48,0,0,0,0,5,3.57,3.57,0,0,0,5,0l13.46-13.46a3.52,3.52,0,1,0-5-5Z"/><path class="cls-1" d="M513,178.59,500.52,191a3.48,3.48,0,0,0,0,5,3.57,3.57,0,0,0,5,0L518,183.57a3.48,3.48,0,0,0,0-5A3.61,3.61,0,0,0,513,178.59Z"/><path class="cls-1" d="M266.56,163.92a18.13,18.13,0,0,0,25.63,0h0a18.13,18.13,0,0,0,0-25.63l-.21-.18a18.13,18.13,0,0,0-25.46,25.82Zm4.73-20.78a11.23,11.23,0,0,1,15.88-.16l.15.16a11.21,11.21,0,0,1-7.93,19.16l.05-.08a11.22,11.22,0,0,1-8.15-19.08Z"/><path class="cls-1" d="M226.49,216.8a3.45,3.45,0,1,0,5.9-3.59A47.27,47.27,0,0,0,175,193.65a3.45,3.45,0,1,0,2.48,6.43l0,0A40.39,40.39,0,0,1,226.49,216.8Z"/><path class="cls-1" d="M192.28,323A12.69,12.69,0,0,0,210.22,341v0A12.67,12.67,0,0,0,192.28,323Zm13.05,13.07a5.73,5.73,0,0,1-4.08,1.67l0,0a5.79,5.79,0,1,1,4.11-1.69Z"/><path class="cls-1" d="M298.41,196.62c-2.25-5.53-9.45-8.42-20.77-8.63a171.53,171.53,0,0,0-39.43,5.29,64,64,0,0,0-15.69-12,3.75,3.75,0,0,0-.44-.24,3.47,3.47,0,0,0-2.84,6.33l.06,0a57.48,57.48,0,0,1,22.49,22,3.49,3.49,0,0,0,.47.82,56.25,56.25,0,0,1,3.07,6.81c.48,1.23.91,2.49,1.3,3.78l.4,1.32A500.57,500.57,0,0,1,195,245.35a498.13,498.13,0,0,1-54.16,17.76l-.59-1.22c-.54-1.18-1.06-2.41-1.56-3.68a56.73,56.73,0,0,1-3.83-20.16,3.84,3.84,0,0,0,0-.48,57.17,57.17,0,0,1,67.73-56.09,3.45,3.45,0,0,0,1.14-6.8A64.07,64.07,0,0,0,128,235.78a172.79,172.79,0,0,0-32.5,22.3c-8.44,7.86-12,15-9.84,20.59C88.9,286.87,104,289,126,285.84c6.08-.88,12.72-2.15,19.84-3.79a64.08,64.08,0,0,0,110.26-42.46q9.57-5.44,17.25-10.59C291.74,216.59,301.59,204.82,298.41,196.62Zm-166.3,64c.51,1.36,1.09,2.72,1.72,4.08-11.8,2.8-19.16,3.86-19.55,2.8a38.89,38.89,0,0,0,3.62-2.64,99.3,99.3,0,0,1,12.89-8.31C131.16,257.88,131.6,259.24,132.11,260.59Zm102.24,15.57a57.15,57.15,0,0,1-80.73,4h.11a445,445,0,0,0,48.58-15.71,443.78,443.78,0,0,0,46.57-21A57.18,57.18,0,0,1,234.35,276.16Zm35.19-52.85c-16.69,11.33-41.35,23.79-69.61,34.67a425,425,0,0,1-53.5,17h-.53c-7.54,1.77-14.56,3.12-20.93,4-18.63,2.7-31.07,2-32.92-2.8-1-2.7,1.88-7.25,8.12-13a157.71,157.71,0,0,1,28.05-19.64,59.5,59.5,0,0,0,.85,6,112.91,112.91,0,0,0-15.35,9.87c-4.89,3.94-6.9,7.54-5.74,10.58,1.9,4.9,13.47,4.82,30.67.74a485.55,485.55,0,0,0,58.82-19,486.53,486.53,0,0,0,56.33-25.4c15.51-8.55,24.13-16.27,22.25-21.17-1.16-3.07-5.16-4.39-11.53-4a113.33,113.33,0,0,0-17.84,3c-1.06-1.73-2.19-3.4-3.41-5a155.79,155.79,0,0,1,34.34-4.2c8.34.15,13.42,1.58,14.45,4.23C293.89,203.92,285.15,212.73,269.54,223.31Zm-19.6-12.75h.1a100.76,100.76,0,0,1,14.74-2.36c3.12-.21,4.71-.42,4.71-.42.4,1-5.79,5.13-16.38,11-.44-1.39-.92-2.78-1.45-4.18S250.55,211.88,249.94,210.56Z"/><path class="cls-1" d="M108.67,178.15a13.76,13.76,0,0,0,19.26-.22h0a13.76,13.76,0,0,0,0-19.46l0,0a13.75,13.75,0,0,0-19.45,0l0,0a13.75,13.75,0,0,0,0,19.45Zm4.68-15a6.85,6.85,0,1,1,.13,9.87l-.13-.16A6.89,6.89,0,0,1,113.35,163.2Z"/></svg>