<svg id="Layer_1" data-name="Layer 1" xmlns="http://www.w3.org/2000/svg" viewBox="0 0 566 483"><defs><style>.cls-1{fill:#fd3cb2;}</style></defs><title>07</title><path class="cls-1" d="M473.33,251.61V213.34c0-21.45-34.73-38.26-79.07-38.26s-79.07,16.81-79.07,38.26v38.27c0,5.43,3,10.73,8.72,15.39l-4.6,48.32,24.59-38c11.39,3.88,25.07,6.34,39.83,7.14l10.53,37.89,10.53-37.89c14.76-.8,28.44-3.26,39.83-7.14l24.59,38L464.61,267C470.3,262.34,473.33,257,473.33,251.61Zm-79.07-71.43c40.1,0,74,15.19,74,33.16,0,5.16-2.8,10.09-7.73,14.5a61.19,61.19,0,0,0-5.12-3.87l-2.83,4.25c1.37.91,2.63,1.86,3.84,2.83-13.3,9.21-36.43,15.45-62.13,15.45s-48.84-6.24-62.15-15.46c13.66-11,37.07-17.7,62.15-17.7,20.61,0,39.78,4.36,54,12.26l2.48-4.46c-14.94-8.32-35-12.9-56.46-12.9-26.74,0-51.81,7.47-66.25,19.59-4.92-4.4-7.72-9.33-7.72-14.49C320.29,195.37,354.16,180.18,394.26,180.18ZM326.37,295l3.88-40.78a27.22,27.22,0,0,1,17.45,7.81Zm67.89,8.27L384.4,267.8a16.68,16.68,0,0,1,9.86-3.44,16.9,16.9,0,0,1,9.86,3.45Zm46.56-41.24a27.19,27.19,0,0,1,17.45-7.81L462.15,295ZM464,260.63l-1.1-11.58h-2.32c-16.39,0-24.65,10.77-25,11.23l-1.07,1.42,7.25,11.2a146.2,146.2,0,0,1-35.53,6.36l3.64-13.1-1.05-1.05a21,21,0,0,0-29.12,0l-1.05,1.05,3.64,13.1a146.2,146.2,0,0,1-35.53-6.36L354,261.7l-1.07-1.42c-.35-.46-8.61-11.23-25-11.23h-2.32l-1.1,11.58c-2.33-2.47-4.23-5.54-4.23-9V227.1c11.19,14.46,39.71,24.51,74,24.51s62.78-10.05,74-24.51v24.51C468.23,255.09,466.33,258.16,464,260.63Z"/><path class="cls-1" d="M178.06,265.9a30.5,30.5,0,1,0,30.5-30.49A30.5,30.5,0,0,0,178.06,265.9Zm30.5-24.39a24.4,24.4,0,1,1-24.4,24.39A24.4,24.4,0,0,1,208.56,241.51Z"/><path class="cls-1" d="M191.13,326.9H226V333H191.13Z"/><path class="cls-1" d="M178.06,314.7h61v6.1h-61Z"/><path class="cls-1" d="M111,314.7h6.11v6.1H111Z"/><path class="cls-1" d="M92.67,320.8h6.1v6.1h-6.1Z"/><path class="cls-1" d="M136.27,297.54a231,231,0,0,0,29.34-90.27L194,235.46a3,3,0,0,0,2.13.89,2.63,2.63,0,0,0,.49,0,3.05,3.05,0,0,0,2.24-1.65,29.77,29.77,0,0,0-5.59-34.41l-2.49-2.49h21.45a3.06,3.06,0,0,0,3-3,2.9,2.9,0,0,0-.16-1,29.77,29.77,0,0,0-28.28-20.38h-4L198.09,158a3.06,3.06,0,0,0,0-4.31,3.11,3.11,0,0,0-.79-.57,29.78,29.78,0,0,0-34.43,5.58L160,161.66a28.53,28.53,0,0,0-2.65,3.05,28.26,28.26,0,0,0-2.62-3.05l-2.91-2.92a29.78,29.78,0,0,0-34.41-5.58,3,3,0,0,0-1.36,4.09,2.91,2.91,0,0,0,.56.79l15.25,15.32h-4a29.78,29.78,0,0,0-28.29,20.38,3.05,3.05,0,0,0,1.93,3.86,3.18,3.18,0,0,0,1,.16h21.43l-2.5,2.49a29.78,29.78,0,0,0-5.58,34.41,3,3,0,0,0,2.23,1.65,2.81,2.81,0,0,0,.5,0,3.07,3.07,0,0,0,2.15-.89l26.41-26.25a165.34,165.34,0,0,1-31.89,80.6,112.09,112.09,0,0,0-12.45-2.54l-1.9-.19-.61,6.07,1.77.17c3,.44,6.09,1.06,9.1,1.75-.61.77-1.22,1.55-1.85,2.3l4.68,3.91A171.74,171.74,0,0,0,153.8,202.5l3.51-3.49,2.63,2.61a223,223,0,0,1-38.67,108.27l5,3.49c2.4-3.42,4.69-7,6.91-10.59a108.16,108.16,0,0,1,36.9,28.91l4.72-3.86a114,114,0,0,0-20.26-19.24H282.36v-6.1H145.5C142.51,300.7,139.42,299.06,136.27,297.54ZM195,227.86l-32.22-32a23.52,23.52,0,0,1,23.28,5.82l2.91,2.91A23.69,23.69,0,0,1,195,227.86Zm12.57-36.2H182.3a29.78,29.78,0,0,0-18.89-2.26,23.65,23.65,0,0,1,19.28-9.94h4.12A23.69,23.69,0,0,1,207.56,191.66ZM164.25,166l2.91-2.91a23.66,23.66,0,0,1,23.31-6l-18.08,18.18A29.79,29.79,0,0,0,158,186.51,23.07,23.07,0,0,1,164.26,166Zm-16.8-2.91,2.91,2.91a23.18,23.18,0,0,1,3.51,4.62,29.06,29.06,0,0,0-2.33,10.14,29.92,29.92,0,0,0-9.3-5.52L124.15,157a23.71,23.71,0,0,1,23.31,6Zm-19.65,16.4h4.12a23.64,23.64,0,0,1,19.29,9.94,29.76,29.76,0,0,0-18.88,2.26H107.07a23.68,23.68,0,0,1,20.74-12.2Zm-8.16,48.4a23.69,23.69,0,0,1,6-23.3l2.91-2.91a23.31,23.31,0,0,1,16.54-6.81,24.48,24.48,0,0,1,6.75,1Z"/></svg>