<svg id="Layer_1" data-name="Layer 1" xmlns="http://www.w3.org/2000/svg" viewBox="0 0 566 483"><defs><style>.cls-1{fill:#fd3cb2;}.cls-2{fill:#259245;}.cls-3{fill:#ed1f34;}.cls-4{fill:#ffe000;}</style></defs><title>08</title><path class="cls-1" d="M467.58,305.92a3.35,3.35,0,0,0-3.35,3.35V340.7a1.84,1.84,0,0,1-1.84,1.85h-18V276.71a3.35,3.35,0,1,0-6.69,0v65.84H401.54L412,331a6,6,0,0,0,1.45-4.81.44.44,0,0,0,0-.1l-10-59,2.69-4.05c1.49,1.06,2.64,2.07,4.79,2.07a5.85,5.85,0,0,0,5.24-3.24h0l10.54-21.13,24,9.3c.87.38,13.48,6.06,13.48,21.06v22.62a3.35,3.35,0,0,0,6.69,0V271.05c0-19.77-16.93-27-17.65-27.25l-.06,0-40-15.48v-9.38a31.26,31.26,0,0,0,11.85-20.6,14.55,14.55,0,0,0,8.51-3.47,14.19,14.19,0,0,0,1.48-20V162.44a41.44,41.44,0,1,0-82.87,0v12.7a13.42,13.42,0,0,0-3.45,9,14.13,14.13,0,0,0,4.93,10.76,14.5,14.5,0,0,0,8.49,3.47,31,31,0,0,0,12.54,21.1v8.88l-39.93,15.48-.06,0c-.72.3-17.65,7.48-17.65,27.25V340.7a8.54,8.54,0,0,0,8.53,8.53h31.86a3.34,3.34,0,1,0,0-6.68h-7.2V276.71a3.34,3.34,0,1,0-6.68,0v65.84h-18a1.85,1.85,0,0,1-1.85-1.85V271.05c0-15.05,12.7-20.72,13.48-21.05l24-9.31,10.54,21.13a5.86,5.86,0,0,0,5.24,3.24c2.14,0,3.28-1,4.79-2.07l2.69,4.05-10,59s0,.07,0,.1A6,6,0,0,0,376,331l10.49,11.55H373.07a3.34,3.34,0,1,0,0,6.68h89.32a8.54,8.54,0,0,0,8.53-8.53V309.27A3.35,3.35,0,0,0,467.58,305.92Zm-47.11-67.65L410.64,258l-11.82-8.4,12.14-15Zm-19.76,20.84L398.16,263h-8.34l-2.55-3.84,6.72-4.77ZM381.4,229.38v-6.26a33.94,33.94,0,0,0,12.65,2.4,31.4,31.4,0,0,0,12.5-2.61v6.49L394,244.91Zm50.44-45.29a7.51,7.51,0,0,1-2.6,5.69,7.88,7.88,0,0,1-3.87,1.78V176.63A7.57,7.57,0,0,1,431.84,184.09Zm-69.93,7.47a7.56,7.56,0,0,1-6.47-7.47c0-3.57,3-6.48,6.47-7.29Zm.18-21.57a16.29,16.29,0,0,0-3.2.72v-8.27a34.75,34.75,0,1,1,69.5,0v8a14.41,14.41,0,0,0-3-.58c0-3.23,0-2.61-10.52-14a5.94,5.94,0,0,0-7.6-.93c-11.64,7.61-25.85,11.43-39,10.49A5.93,5.93,0,0,0,362.09,170Zm6.51,24.2v-22c14.43.85,29.56-3.44,41.78-11.27,4.84,5.2,7.46,7.92,8.31,9v24.27a24.69,24.69,0,0,1-24.64,24.64C378.8,218.83,368.6,207,368.6,194.19ZM377.34,258l-9.83-19.7,9.49-3.68,12.15,15Zm3.84,68.84,9.67-57.17h6.27l9.68,57.17L394,340.91Z"/><path class="cls-2" d="M100.57,298.51v-108h59.28v28.28l-.2,0a25.45,25.45,0,0,0,0,50.58l.2,0v10.12a1.43,1.43,0,0,0,1.43,1.43h1.42v6.14h-1.42a1.43,1.43,0,0,0-1.43,1.43v10Z"/><path class="cls-2" d="M162.48,281.29a2.84,2.84,0,0,1-2.85-2.83v-8.64a25.48,25.48,0,0,1,0-50.64V190.71H100.79V298.29h58.84v-8.5a2.84,2.84,0,0,1,2.85-2.83h0v-5.67Z"/><path class="cls-3" d="M165.12,298.51v-10a1.43,1.43,0,0,0-1.43-1.43h-1.43V281h1.43a1.43,1.43,0,0,0,1.43-1.43v-9.9l.19,0a25.26,25.26,0,0,0,0-50.2l-.19,0V190.49H265.24v108Z"/><path class="cls-3" d="M165.34,219.18a25.48,25.48,0,0,1,0,50.64v8.54a2.86,2.86,0,0,1-2.86,2.85v5.71a2.86,2.86,0,0,1,2.86,2.86v8.51H265V190.71H165.34Z"/><path d="M267.89,185h-170a2.83,2.83,0,0,0-2.83,2.83V301.17A2.83,2.83,0,0,0,97.91,304h170a2.83,2.83,0,0,0,2.83-2.83V187.83A2.83,2.83,0,0,0,267.89,185ZM265,298.29H165.34v-8.5a2.85,2.85,0,0,0-2.86-2.83h0a2.84,2.84,0,0,0-2.85,2.83v8.5H100.79V190.71h58.84V219.2a25.47,25.47,0,0,0,0,50.67v8.66a2.84,2.84,0,0,0,2.85,2.83h0a2.84,2.84,0,0,0,2.86-2.83v-8.71a25.48,25.48,0,0,0,0-50.64V190.71H265ZM162.44,224.57a19.84,19.84,0,1,1-19.83,19.84A19.85,19.85,0,0,1,162.44,224.57Z"/><path class="cls-4" d="M162.44,264.46a20.06,20.06,0,1,1,20.05-20A20.08,20.08,0,0,1,162.44,264.46Z"/><path class="cls-4" d="M142.61,244.41a19.83,19.83,0,1,0,19.83-19.84A19.86,19.86,0,0,0,142.61,244.41Z"/></svg>