<svg id="Layer_1" data-name="Layer 1" xmlns="http://www.w3.org/2000/svg" viewBox="0 0 566 483"><defs><style>.cls-1{fill:#fd3cb2;}</style></defs><title>09</title><path class="cls-1" d="M281.88,252.45a4.24,4.24,0,0,0-3.46-.35l-25.5,8.44-15.54-9,17.6-6.18a4.25,4.25,0,0,0,2.27-1.88l.09-.17a4.32,4.32,0,0,0-.41-5,4.22,4.22,0,0,0-4.52-1.22l-25.5,8.44-13.91-8v-7.08l13.9-8,25.5,8.44a4.28,4.28,0,0,0,3.46-.35,4.22,4.22,0,0,0,1.55-5.78l-.16-.29a4.3,4.3,0,0,0-2.27-1.88l-17.6-6.18,15.54-8.95,25.5,8.45a4.24,4.24,0,0,0,5-6.13l-.17-.29a4.27,4.27,0,0,0-2.26-1.88l-17.61-6.18,8.74-5A6.13,6.13,0,1,0,266,185.82l-8.74,5,3.43-18.29a4.25,4.25,0,0,0-.49-2.9l-.17-.29a4.25,4.25,0,0,0-7.83,1.27l-5.42,26.24-15.54,9,3.43-18.3a4.23,4.23,0,0,0-.49-2.89l-.12-.2a4.3,4.3,0,0,0-3.93-2.2,4.25,4.25,0,0,0-4,3.37l-5.41,26.25-10,5.73-10.08-5V199.81L220.79,182a4.23,4.23,0,0,0,1-5.12,4.35,4.35,0,0,0-3.87-2.27h-.23a4.24,4.24,0,0,0-2.76,1l-14.17,12.11V169.86l20.08-17.8a4.24,4.24,0,0,0,1.12-4.76,4.3,4.3,0,0,0-4-2.63h-.24a4.29,4.29,0,0,0-2.76,1L200.71,157.8v-9.89a6.25,6.25,0,0,0-5.46-6.27,6.14,6.14,0,0,0-6.83,6.09v10.06l-14.17-12.11a4.29,4.29,0,0,0-2.76-1h-.23a4.32,4.32,0,0,0-4,2.58,4.23,4.23,0,0,0,1.1,4.81l20.08,17.8v17.89l-14.17-12.11a4.24,4.24,0,0,0-2.76-1h-.23a4.34,4.34,0,0,0-4,2.58,4.23,4.23,0,0,0,1.1,4.81l20.08,17.8v12.25l-10.08,5-10-5.74L163,185.11a4.24,4.24,0,0,0-7.83-1.26l-.16.29a4.17,4.17,0,0,0-.5,2.89l3.44,18.29-15.55-8.95-5.42-26.24a4.24,4.24,0,0,0-7.82-1.26l-.17.29a4.23,4.23,0,0,0-.5,2.89l3.44,18.3-8.74-5A6.13,6.13,0,1,0,117,195.92l8.74,5-17.6,6.18a4.18,4.18,0,0,0-2.26,1.87l-.08.13a4.34,4.34,0,0,0,1.36,5.88,4.19,4.19,0,0,0,3.55.41L136.2,207l15.55,8.95-17.61,6.18a4.22,4.22,0,0,0-2.26,1.88l-.17.29a4.21,4.21,0,0,0,1.55,5.77,4.28,4.28,0,0,0,3.46.35l25.5-8.44,13.91,8v7.08l-13.91,8-25.5-8.44a4.23,4.23,0,0,0-5,6.13l.16.29a4.28,4.28,0,0,0,2.27,1.87l17.6,6.18L136.21,260l-25.5-8.44a4.23,4.23,0,0,0-5,6.13l.17.29a4.25,4.25,0,0,0,2.26,1.87l17.61,6.18-8.74,5a6.13,6.13,0,1,0,6.14,10.61l8.74-5L128.45,295a4.22,4.22,0,0,0,.49,2.89l.17.29a4.25,4.25,0,0,0,7.83-1.26l5.42-26.24,15.54-8.95L154.47,280a4.22,4.22,0,0,0,.49,2.89l.12.21a4.3,4.3,0,0,0,3.93,2.2,4.25,4.25,0,0,0,4-3.38l5.41-26.24,10-5.74,10.08,5v12.77l-20.08,17.8a4.23,4.23,0,0,0-1.1,4.79,4.32,4.32,0,0,0,4,2.6h.23a4.24,4.24,0,0,0,2.76-1l14.17-12.11v17.89l-20.08,17.8a4.23,4.23,0,0,0-1.1,4.81,4.32,4.32,0,0,0,4,2.58h.23a4.29,4.29,0,0,0,2.76-1l14.17-12.12v9.89a6.24,6.24,0,0,0,5.45,6.27,6.13,6.13,0,0,0,6.84-6.09V309.73l14.17,12.12a4.29,4.29,0,0,0,2.76,1h.23a4.3,4.3,0,0,0,4-2.58,4.24,4.24,0,0,0-1.09-4.81l-20.08-17.8V279.78l14.17,12.11a4.24,4.24,0,0,0,2.76,1h.21a4.36,4.36,0,0,0,4-2.56,4.22,4.22,0,0,0-1.08-4.83l-20.08-17.8V255.46l10.08-5,10,5.73,5.42,26.25a4.24,4.24,0,0,0,7.82,1.26l.17-.29a4.23,4.23,0,0,0,.5-2.89l-3.44-18.3,15.54,8.95,5.43,26.25a4.19,4.19,0,0,0,2,2.8,4.24,4.24,0,0,0,5.79-1.54l.17-.29a4.19,4.19,0,0,0,.49-2.9l-3.43-18.29,8.74,5a6.13,6.13,0,1,0,6.15-10.61l-8.75-5L281,260.39a4.23,4.23,0,0,0,2.26-1.88l.17-.29A4.21,4.21,0,0,0,281.88,252.45Zm-81.17-12.54L194.56,243l-6.14-3.07V227.62l6.14-3.07,6.15,3.07Z"/><path class="cls-1" d="M411.26,229.31a4.18,4.18,0,1,0,4.18,4.18A4.18,4.18,0,0,0,411.26,229.31Z"/><path class="cls-1" d="M448.88,296.19h-5L430.27,219.9a29.24,29.24,0,0,0-28.78-24h-39a29.23,29.23,0,0,0-28.78,24l-13.61,76.28h-5a12.55,12.55,0,0,0-12.54,12.54v16.72a4.18,4.18,0,0,0,4.18,4.18H457.23a4.18,4.18,0,0,0,4.18-4.18V308.73A12.55,12.55,0,0,0,448.88,296.19ZM342,221.39a20.9,20.9,0,0,1,20.56-17.16h39a20.9,20.9,0,0,1,20.56,17.15l13.34,74.81H328.61Zm111.1,99.88H311V308.73a4.18,4.18,0,0,1,4.18-4.18H448.88a4.18,4.18,0,0,1,4.17,4.18Z"/><path class="cls-1" d="M424.73,282.9l-6.13-33.75a4.18,4.18,0,0,0-8.22,1.49l6.13,33.76a4.18,4.18,0,1,0,8.22-1.5Z"/><path class="cls-1" d="M484.82,229.31H448.88a4.18,4.18,0,0,0,0,8.36h35.94a4.18,4.18,0,1,0,0-8.36Z"/><path class="cls-1" d="M315.13,229.31H279.18a4.18,4.18,0,0,0,0,8.36h35.95a4.18,4.18,0,0,0,0-8.36Z"/><path class="cls-1" d="M455.89,159.6a4.18,4.18,0,0,0-5.91,0l-23.65,23.65a4.18,4.18,0,1,0,5.91,5.91l23.65-23.65A4.18,4.18,0,0,0,455.89,159.6Z"/><path class="cls-1" d="M337.67,183.25,314,159.6a4.18,4.18,0,0,0-5.91,5.91l23.65,23.65a4.18,4.18,0,1,0,5.91-5.91Z"/><path class="cls-1" d="M382,129a4.18,4.18,0,0,0-4.18,4.18v33.44a4.18,4.18,0,0,0,8.36,0V133.18A4.18,4.18,0,0,0,382,129Z"/></svg>