<svg id="Layer_1" data-name="Layer 1" xmlns="http://www.w3.org/2000/svg" viewBox="0 0 566 483"><defs><style>.cls-1{fill:#fd3cb2;}</style></defs><title>10</title><g id="_Group_" data-name="&lt;Group&gt;"><path id="_Compound_Path_" data-name="&lt;Compound Path&gt;" class="cls-1" d="M313.49,169.86h-195a6.12,6.12,0,0,0-6.12,6.12V307a6.12,6.12,0,0,0,6.12,6.12h195a6.12,6.12,0,0,0,6.12-6.12V176A6.12,6.12,0,0,0,313.49,169.86Zm-6,131.14h-183V182.4h183Z"/><path id="_Compound_Path_2" data-name="&lt;Compound Path&gt;" class="cls-1" d="M171,269.7a40.39,40.39,0,1,0-40.39-40.39A40.44,40.44,0,0,0,171,269.7Zm0-68.54a28.15,28.15,0,1,1-28.15,28.15A28.18,28.18,0,0,1,171,201.16Z"/><path id="_Compound_Path_3" data-name="&lt;Compound Path&gt;" class="cls-1" d="M171,248.34a19,19,0,1,0-19-19A19.06,19.06,0,0,0,171,248.34Zm0-25.82a6.79,6.79,0,1,1-6.8,6.79A6.8,6.8,0,0,1,171,222.52Z"/><path id="_Path_" data-name="&lt;Path&gt;" class="cls-1" d="M296.54,216.4a6.09,6.09,0,0,0-6.34-6.11,6.2,6.2,0,0,0-5.8,6.26v40a6.11,6.11,0,0,0-4.55,6.59,6.21,6.21,0,0,0,6.24,5.46h8.76a6.23,6.23,0,0,0,6.25-5.46,6.12,6.12,0,0,0-4.56-6.59Z"/><path id="_Path_2" data-name="&lt;Path&gt;" class="cls-1" d="M221.66,222.38v40a6.2,6.2,0,0,0,5.8,6.26,6.08,6.08,0,0,0,6.34-6.11V222.38a6.11,6.11,0,0,0,4.56-6.59,6.23,6.23,0,0,0-6.25-5.46h-8.75a6.22,6.22,0,0,0-6.25,5.46A6.11,6.11,0,0,0,221.66,222.38Z"/><path id="_Path_3" data-name="&lt;Path&gt;" class="cls-1" d="M238.12,239.3a6.06,6.06,0,0,0,4.59,5.88V262a6.2,6.2,0,0,0,5.8,6.26,6.07,6.07,0,0,0,6.34-6.07v-17a6.06,6.06,0,0,0,0-11.76v-16.8a6.19,6.19,0,0,0-5.79-6.25,6.07,6.07,0,0,0-6.35,6.06v17A6.07,6.07,0,0,0,238.12,239.3Z"/><path id="_Path_4" data-name="&lt;Path&gt;" class="cls-1" d="M275.5,219.73v-3.11a6.2,6.2,0,0,0-5.8-6.25,6.07,6.07,0,0,0-6.35,6.06v3.3a6.06,6.06,0,0,0,0,11.76V262a6.2,6.2,0,0,0,5.8,6.26,6.08,6.08,0,0,0,6.35-6.07V231.49a6.06,6.06,0,0,0,0-11.76Z"/><path id="_Path_5" data-name="&lt;Path&gt;" class="cls-1" d="M227.93,277.52h0a6.19,6.19,0,0,0-6.25,5.8,6.07,6.07,0,0,0,6.06,6.35h0a6.2,6.2,0,0,0,6.26-5.8A6.08,6.08,0,0,0,227.93,277.52Z"/><path id="_Path_6" data-name="&lt;Path&gt;" class="cls-1" d="M140.88,277.52h0a6.2,6.2,0,0,0-6.26,5.8,6.08,6.08,0,0,0,6.07,6.35h0a6.19,6.19,0,0,0,6.25-5.8A6.07,6.07,0,0,0,140.88,277.52Z"/><path id="_Path_7" data-name="&lt;Path&gt;" class="cls-1" d="M248.84,277.52h0a6.2,6.2,0,0,0-6.26,5.8,6.08,6.08,0,0,0,6.07,6.35h0a6.2,6.2,0,0,0,6.26-5.8A6.08,6.08,0,0,0,248.84,277.52Z"/><path id="_Path_8" data-name="&lt;Path&gt;" class="cls-1" d="M269.75,277.52h0a6.2,6.2,0,0,0-6.26,5.8,6.08,6.08,0,0,0,6.07,6.35h0a6.19,6.19,0,0,0,6.25-5.8A6.07,6.07,0,0,0,269.75,277.52Z"/><path id="_Path_9" data-name="&lt;Path&gt;" class="cls-1" d="M290.66,277.52h0a6.19,6.19,0,0,0-6.25,5.8,6.07,6.07,0,0,0,6.06,6.35h0a6.19,6.19,0,0,0,6.25-5.8A6.07,6.07,0,0,0,290.66,277.52Z"/><path id="_Path_10" data-name="&lt;Path&gt;" class="cls-1" d="M190.68,277.52h-33.2a6.2,6.2,0,0,0-6.26,5.8,6.08,6.08,0,0,0,6.07,6.35h33.2a6.2,6.2,0,0,0,6.26-5.8A6.08,6.08,0,0,0,190.68,277.52Z"/><path id="_Path_11" data-name="&lt;Path&gt;" class="cls-1" d="M256.83,203.86H290a6.19,6.19,0,0,0,6.25-5.8,6.07,6.07,0,0,0-6.06-6.35H257a6.2,6.2,0,0,0-6.26,5.8A6.08,6.08,0,0,0,256.83,203.86Z"/></g><path class="cls-1" d="M404.54,169.86c24.73,0,49.08,11.39,49.08,38.64,0,25.12-28.79,34.79-35,43.87-4.65,6.75-3.1,16.24-15.85,16.24-8.31,0-12.37-6.76-12.37-12.94,0-23,33.81-28.22,33.81-47.17,0-10.43-6.94-16.61-18.54-16.61-24.74,0-15.08,25.5-33.81,25.5-6.76,0-12.57-4.06-12.57-11.78C359.32,186.65,381,169.86,404.54,169.86Zm-1,111.29A15.86,15.86,0,1,1,387.72,297,15.93,15.93,0,0,1,403.57,281.15Z"/></svg>