<svg id="Layer_1" data-name="Layer 1" xmlns="http://www.w3.org/2000/svg" viewBox="0 0 566 483"><defs><style>.cls-1{fill:#fd3cb2;}</style></defs><title>11</title><path class="cls-1" d="M285.9,129a4.12,4.12,0,0,0-2.93,1.21L164.56,248.62l-2.91-2.91a4.13,4.13,0,0,0-5.84,0L95.64,305.88a12.37,12.37,0,1,0,17.51,17.49l36.71-36.71a24.71,24.71,0,0,0,49.41-.91c0-1-.1-20.29-7-38.94a26.33,26.33,0,0,0,9,1.74c7.71,0,15.52-3.46,22.87-10.36,7.93-7.46,12.31-16.56,12.31-25.6a26.48,26.48,0,0,0-2-10c11.47-.72,25.36-8.67,33.75-17a73.15,73.15,0,0,0,13.58-19.69V314.62a4.13,4.13,0,1,1-8.25,0v-16.5a4.12,4.12,0,0,0-7-2.91l-4.12,4.12a4.13,4.13,0,0,0,2.91,7v8.25a12.38,12.38,0,1,0,24.75,0V133.13A4.12,4.12,0,0,0,285.9,129ZM181.75,243.1a91.9,91.9,0,0,1,7.12,22.55A24.59,24.59,0,0,0,174.52,261h-.14a4,4,0,0,0-1.06-3.63l-2.92-2.92Zm-74.43,74.44a4.23,4.23,0,0,1-5.84,0,4.12,4.12,0,0,1,0-5.83l57.25-57.25,5.84,5.83ZM191,285.75a16.5,16.5,0,1,1-16.5-16.5,16.52,16.52,0,0,1,16.5,16.5Zm27.49-53.57c-10,9.44-19.94,10.64-29.49,3.66l35-35a18.73,18.73,0,0,1,4.21,11.76C228.23,219.24,224.68,226.37,218.51,232.18Zm43.85-52.47c-8.69,8.68-21.85,15.25-30,14.77a9.63,9.63,0,0,1-1.65-.33l49.8-49.81C277.84,157.37,271,171,262.36,179.71Z"/><path class="cls-1" d="M421.63,185.82a4,4,0,0,0-5.3-2,52.27,52.27,0,0,1-41.82.07,4,4,0,0,0-5.29,2,3.92,3.92,0,0,0-.35,1.63,4,4,0,0,0,2.39,3.67,60.29,60.29,0,0,0,48.33-.07A4,4,0,0,0,421.63,185.82Z"/><path class="cls-1" d="M442.53,322.28a6,6,0,0,0-2-6.71L404.8,287.8C416.84,276.48,444,247,444,211.53c0-44.62-42.92-79.72-44.75-81.2a6,6,0,0,0-7.56,0c-1.82,1.48-44.74,36.58-44.74,81.21h0c0,35.35,26.94,64.72,39,76.14l-35.9,27.89a6,6,0,0,0,3.7,10.78h83.08A6,6,0,0,0,442.53,322.28ZM359,211.54h0c0-31.63,26.46-59.19,36.48-68.49,10,9.3,36.49,36.86,36.49,68.48S405.47,270.71,395.45,280C385.42,270.71,359,243.16,359,211.54Zm12.36,102.77,24-18.64,24,18.64Z"/><circle class="cls-1" cx="399.68" cy="169.98" r="6.92"/><path class="cls-1" d="M399.92,244.71l11.2-22.07a5,5,0,1,0-9-4.54l-6.71,13.24-6.72-13.24a5,5,0,0,0-9,4.54L391,244.71a5,5,0,0,0,8.95,0Z"/></svg>