<svg id="Layer_1" data-name="Layer 1" xmlns="http://www.w3.org/2000/svg" viewBox="0 0 566 483"><defs><style>.cls-1{fill:#fd3cb2;}</style></defs><title>14</title><path class="cls-1" d="M210.45,261.22h6.77l5-22.88H204.43c-.91-4.44-1.69-9.22-2.36-14.07h7.5v-8.8h-4.4v4h-3.52q-.78-5.84-1.41-12.37c-.13-1.48-.26-2.94-.37-4.35h7.94v-8.8h-4.4v4.4h-4c-.48-6.83-.74-12.23-.87-15h4.87V164.44h-7.48V151.68h-4.84V142h-4.4v9.68h-5.28v12.76h-7.48v18.91h5c-.12,2.83-.37,8.07-.84,14.52h-3.71v-4H170v8.8h8q-.17,2.06-.36,4.2-.63,6.61-1.42,12.52h-4v-4h-4.39v8.8h7.56c-.68,4.88-1.48,9.67-2.43,14.07H155.3l5,22.88h6.62c-3.27,9.76-14.66,41.49-32.31,65.83l-2.67,3.68h35V322a21.78,21.78,0,1,1,43.55-.16v8.9h35l-2.67-3.68C225.13,302.72,213.72,271,210.45,261.22ZM215,321.07a26.09,26.09,0,0,0-3.65-12.71l12.06.86Zm-5.16-17.43,5.84-15.86c2.32,5.3,5,11,8,16.85Zm1.83-25.47L195,273.72l11.18-10.37C207.27,266.55,209.12,271.76,211.67,278.17Zm-20.58-16.51h10.35l-10.35,9.6Zm-4.84,9.6-10.35-9.6h10.35Zm0,22.38L167.61,282.4l18.64-5v16.21Zm4.84-16.21,18.64,5-18.64,11.24Zm-9.17-69.21c.18-1.8.35-3.63.51-5.51h12.63c.17,2,.34,3.86.53,5.74.33,3.55.71,7.25,1.16,11h-16C181.19,215.63,181.59,211.85,181.92,208.22Zm4.33-51.7h5.28v8.36h-5.28v-8.36Zm-7.92,22v-9.23H199v9.23H178.33Zm15.6,4.84c.12,2.86.38,8.26.86,15H182.7c.48-6.68.74-12.09.86-15Zm-13.79,40.92h17.19c.65,4.82,1.41,9.6,2.31,14.07H177.77C178.69,233.91,179.47,229.12,180.14,224.27Zm-16.51,32.55-3.06-14.08h56.35l-3.06,14.08H163.63Zm7.67,6.53,11.18,10.37-16.66,4.45C168.37,271.76,170.22,266.55,171.3,263.35Zm-9.49,24.42,5.84,15.87-13.86,1C156.81,298.81,159.49,293.08,161.81,287.77Zm.68,33.3-8.41-11.85,12.06-.86A26.09,26.09,0,0,0,162.49,321.07Zm-21.31,4.82c3.19-4.66,6.15-9.53,8.89-14.41l10.23,14.41Zm30.63-24.26-5.41-14.7,15.59,9.4A26.12,26.12,0,0,0,171.81,301.63Zm23.69-5.3,15.59-9.4-5.41,14.7A26.12,26.12,0,0,0,195.5,296.33Zm21.69,29.56,10.23-14.41c2.74,4.89,5.7,9.75,8.89,14.41Z"/><rect class="cls-1" x="173.05" y="247.58" width="4.4" height="4.4"/><rect class="cls-1" x="186.69" y="247.58" width="4.4" height="4.4"/><rect class="cls-1" x="199.89" y="247.58" width="4.4" height="4.4"/><path class="cls-1" d="M432.53,192.22l-46.67-46.67a5.3,5.3,0,0,0-9,3.23c-2.32,23.36-11.33,43.49-26.07,58.22l-26.68,26.69-3.31-3.31a5.3,5.3,0,0,0-7.5,7.5l3.31,3.31-3.5,3.5-3.31-3.31a5.3,5.3,0,0,0-7.5,7.5l3.3,3.31-3.5,3.5-3.31-3.31a5.3,5.3,0,0,0-7.49,7.5l3.3,3.31-26.2,26.2-1-1a5.3,5.3,0,0,0-7.5,7.5l22.27,22.26a5.3,5.3,0,0,0,7.5-7.5l-1-1,4.33-4.33a24.08,24.08,0,0,0,6.59,12.24l.63.63a24.25,24.25,0,0,0,34.27,0l.31-.32h0l7.25-7.25,3.45,3.45a5.3,5.3,0,0,0,7.49-7.5l-3.44-3.45,3.5-3.5,3.45,3.45a5.31,5.31,0,0,0,7.5,0,5.31,5.31,0,0,0,0-7.5l-3.45-3.45,3.5-3.5,3.45,3.45a5.3,5.3,0,0,0,7.5-7.5l-3.45-3.45L421.73,231A13.23,13.23,0,0,0,403,212.32l-8.48,8.48a24.16,24.16,0,0,0-8.95-5.08c12.47-7.9,27.29-12.84,43.71-14.47a5.3,5.3,0,0,0,3.22-9ZM324.09,248.69l5.09,5.09-3.51,3.5-5.09-5.09ZM322.4,276l3.5-3.5,8.48,8.48-3.51,3.5Zm11-11,3.5-3.5,8.48,8.48-3.5,3.5Zm-20.32-5.31,5.09,5.09-3.5,3.5-5.09-5.09Zm-11,11,5.09,5.09-7.56,7.57a24.17,24.17,0,0,0-2.53,3l-15.89,15.9-5.31-5.32Zm5.66,40.06-.63-.63a13.66,13.66,0,0,1-1.84-17l9.62-9.62,9,9a21.17,21.17,0,0,0-.16,20.65A13.64,13.64,0,0,1,307.74,310.75Zm24.34-5.08a11,11,0,0,1-.34-2.69,10.38,10.38,0,0,1,.27-2.37l2.56,2.57Zm10-10-3.7-3.7,3.5-3.5,3.7,3.7Zm11-11-3.7-3.7,3.5-3.5,3.7,3.7Zm7.3-14.7,32.15-32.15a13.64,13.64,0,0,1-3.88,11.28l-.32.32h0l-24.25,24.25Zm50.15-50.16a2.62,2.62,0,0,1,3.7,3.7L402.81,235a24.44,24.44,0,0,0-1.79-5.61Zm-57.65,42.66L344.4,254,371,227.38a13.63,13.63,0,0,1,16,.94Zm11.38-43.32a23.31,23.31,0,0,0-3,2.55l-24.56,24.57-5.09-5.09,26.68-26.69c14.16-14.16,23.59-32.65,27.59-53.95l31.68,31.68C396.57,196.17,378.32,205.37,364.26,219.16Z"/></svg>