<svg id="Layer_1" data-name="Layer 1" xmlns="http://www.w3.org/2000/svg" viewBox="0 0 566 483"><defs><style>.cls-1,.cls-2{fill:#fd3cb2;}.cls-2{stroke:#fd3cb2;stroke-miterlimit:10;stroke-width:4px;}</style></defs><title>15</title><path class="cls-1" d="M384.93,320.15c-.18,0-25.71-4.32-25.71-4.32-1.82-2.06-5.75-6.4-10.24-10.8-11.78-11.55-16.78-13-19.81-13H214.77c-5.87,0-11.45,4.55-17.07,13.92a91.86,91.86,0,0,0-5.32,10.46L181,320.19a20.77,20.77,0,0,0-8.23,4.72,11.69,11.69,0,0,0-3.74,8.41v22.27a4.45,4.45,0,0,0,4.45,4.45h8.16a17.82,17.82,0,0,0,34.5,0h126.8a17.81,17.81,0,0,0,34.49,0h15.15a4.45,4.45,0,0,0,4.45-4.45V333.32C397,327.71,392,322.3,384.93,320.15ZM329.12,300.9c.14,0,3.42.44,13.88,10.74,1.52,1.49,3,3,4.29,4.36l-32.47-.1-3.61-15Zm-27.07,0,3.61,15-28.56-.1-3.75-14.87Zm-37.89,0,3.75,14.84-28.9-.09L235.5,300.9Zm-49.39,0h11.57l3.5,14.72-27.28-.09C206.43,307.79,211.55,300.9,214.77,300.9Zm-33.16,50.23h-3.7V333.32a2.77,2.77,0,0,1,1.08-2.06,12,12,0,0,1,4.78-2.62l7.34-2.45,2.48,12.38A17.89,17.89,0,0,0,181.61,351.13Zm17.25,13.36a8.91,8.91,0,1,1,8.9-8.9A8.92,8.92,0,0,1,198.86,364.49Zm161.29,0a8.91,8.91,0,1,1,8.91-8.9A8.91,8.91,0,0,1,360.15,364.49Zm17.25-13.36a17.82,17.82,0,0,0-34.5,0H216.11a17.87,17.87,0,0,0-13.52-13l-2.75-13.75,159.92.53s17.22,2.43,22.85,3.81c3.48.85,5.48,3.38,5.48,4.56v17.81Z"/><path class="cls-2" d="M271,236.92a2.79,2.79,0,0,0,4,4,12.69,12.69,0,0,1,17.92,0,2.79,2.79,0,0,0,3.95-4A18.28,18.28,0,0,0,271,236.92Z"/><path class="cls-2" d="M298,218.66c-.25-.25-.52-.49-.8-.73a11.17,11.17,0,0,0-13.13-.85,11.17,11.17,0,0,0-13.13.85c-.28.24-.55.48-.8.73a2.79,2.79,0,0,0,3.95,4,3.7,3.7,0,0,1,.41-.37,5.61,5.61,0,0,1,7.59.37,2.84,2.84,0,0,0,2,.82h0a2.84,2.84,0,0,0,2-.82,5.62,5.62,0,0,1,7.59-.37,3.7,3.7,0,0,1,.41.37,2.79,2.79,0,0,0,3.95-4Z"/><path class="cls-2" d="M372.85,182.4a2.79,2.79,0,1,0-4.63,3.12,18.85,18.85,0,0,1-15.63,29.39h-.08c.12-1.68.19-3.38.19-5.09V194.14c2.22-.17,5.65.2,7.17,3.68a2.79,2.79,0,0,0,2.56,1.68,2.73,2.73,0,0,0,1.11-.23,2.79,2.79,0,0,0,1.45-3.68c-2.55-5.86-8-7.22-12.29-7V177.22a18.65,18.65,0,0,1,8.65,2.15,2.79,2.79,0,1,0,2.61-4.94,24.47,24.47,0,0,0-11.26-2.8v-6.8a68.86,68.86,0,0,0-55.76-67.59A68.89,68.89,0,0,0,215,164.83v6.85c-.54,0-1.09-.05-1.63-.05a24.43,24.43,0,0,0,0,48.86q1.23,0,2.43-.12a68,68,0,0,0,4.61,16.23,2.79,2.79,0,1,0,5.14-2.18,62.74,62.74,0,0,1-5-24.61V176.55a48.69,48.69,0,0,0,18.73-13,36.32,36.32,0,0,0,8.43-15.17A90.3,90.3,0,0,0,267.27,161c14.76,7.26,40.5,15.89,79.84,16.33v32.46a63.21,63.21,0,0,1-15.34,41.29l-.32-.39a8.16,8.16,0,0,1-1.58-8.24A13.74,13.74,0,0,0,327.28,229a7.42,7.42,0,0,1-1.93-3.9,7.51,7.51,0,0,1,.34-4.34,12.71,12.71,0,0,0,.5-7.07,12.84,12.84,0,0,0-3.08-6.38,7.33,7.33,0,0,1-1.77-3.19,15.53,15.53,0,0,0,2.77-2.95,2.8,2.8,0,0,0-4.55-3.25,9.88,9.88,0,0,1-17.94-5.72,2.8,2.8,0,1,0-5.59,0,15.33,15.33,0,0,0,2.71,8.73,15.63,15.63,0,0,0,2.78,6.62,10.5,10.5,0,0,1,.46,11.84,16.06,16.06,0,0,0,.69,17.62,10.48,10.48,0,0,1,.46,11.83,16,16,0,0,0,.68,17.63,12.51,12.51,0,0,1,1.54,2.82,63.62,63.62,0,0,1-44.51-.57,15.26,15.26,0,0,1,1.31-2.25,16,16,0,0,0,.68-17.63,10.48,10.48,0,0,1,.46-11.83,16.06,16.06,0,0,0,.69-17.62,10.5,10.5,0,0,1,.46-11.84,15.38,15.38,0,0,0,2.78-6.62,15.33,15.33,0,0,0,2.71-8.73,2.79,2.79,0,1,0-5.58,0,9.89,9.89,0,0,1-18,5.72,2.79,2.79,0,1,0-4.54,3.25,15.48,15.48,0,0,0,2.76,2.95,7.32,7.32,0,0,1-1.76,3.19,13.74,13.74,0,0,0-2.59,13.45,7.43,7.43,0,0,1,.34,4.34,7.35,7.35,0,0,1-1.93,3.9,12.84,12.84,0,0,0-3.08,6.38,12.71,12.71,0,0,0,.5,7.07,7.43,7.43,0,0,1,.34,4.34,7.06,7.06,0,0,1-1.38,3.22,63.81,63.81,0,0,1-4.34-5.92,2.79,2.79,0,0,0-4.69,3,68.65,68.65,0,0,0,57.83,31.5,69.6,69.6,0,0,0,13.08-1.24,68.89,68.89,0,0,0,54.93-56.92h.72a24.44,24.44,0,0,0,20.26-38.09Zm-134,71.83a13.75,13.75,0,0,0,2.58-13.44,7.4,7.4,0,0,1-.34-4.33,7.49,7.49,0,0,1,1.93-3.91,13.8,13.8,0,0,0,2.59-13.44,8.22,8.22,0,0,1,1.58-8.24,13.21,13.21,0,0,0,2.42-4,15.17,15.17,0,0,0,8.57.34,16.23,16.23,0,0,0,.92,14.88,10.5,10.5,0,0,1-.46,11.84,16,16,0,0,0-.68,17.62,10.5,10.5,0,0,1-.46,11.84,20.1,20.1,0,0,0-1.76,3.06A62.89,62.89,0,0,1,238.84,254.23Zm69.63,9.18a10.5,10.5,0,0,1-.46-11.84,16,16,0,0,0-.68-17.62,10.5,10.5,0,0,1-.46-11.84,16.23,16.23,0,0,0,.92-14.88,15.17,15.17,0,0,0,8.57-.34,13.21,13.21,0,0,0,2.42,4,7.42,7.42,0,0,1,1.93,3.9,7.51,7.51,0,0,1-.34,4.34A13.76,13.76,0,0,0,323,232.55a8.19,8.19,0,0,1,1.59,8.24,13.74,13.74,0,0,0,2.59,13.45c.27.34.52.66.75,1a63.14,63.14,0,0,1-17.36,12A17.62,17.62,0,0,0,308.47,263.41ZM213.41,214.9a18.85,18.85,0,1,1,0-37.69c.55,0,1.09,0,1.63.08v11.27c-4.26-.19-9.74,1.17-12.3,7a2.81,2.81,0,0,0,1.45,3.68,2.73,2.73,0,0,0,1.11.23,2.81,2.81,0,0,0,2.57-1.68c1.51-3.48,4.93-3.85,7.17-3.68v15.67q0,2.52.18,5C214.62,214.87,214,214.9,213.41,214.9Zm56.73-58.7c-12.57-6.12-20-12.79-22.24-15.45a2.79,2.79,0,0,0-5,1.76c0,5.6-2.75,11.77-7.76,17.37a44,44,0,0,1-14.56,10.63v-5.68a63.25,63.25,0,1,1,126.49,0v6.94C309.12,171.34,284.33,163.12,270.14,156.2Z"/></svg>