<svg id="Layer_1" data-name="Layer 1" xmlns="http://www.w3.org/2000/svg" viewBox="0 0 566 483"><defs><style>.cls-1{fill:#fd3cb2;}</style></defs><title>16</title><path class="cls-1" d="M164.31,219.16a17.85,17.85,0,0,0-30.11,13c0,19.5,27.46,35.27,28.63,35.93a3,3,0,0,0,1.48.39,3,3,0,0,0,1.49-.39c1.16-.66,28.62-16.43,28.62-35.93a17.85,17.85,0,0,0-30.11-13Zm24.08,13c0,13.72-18.63,26.38-24.08,29.79a85,85,0,0,1-11.53-8.64c-5.73-5.13-12.55-13-12.55-21.15a11.83,11.83,0,0,1,21.6-6.73,3,3,0,0,0,5,0,11.83,11.83,0,0,1,21.6,6.73Z"/><path class="cls-1" d="M209.5,142H119.12a15.08,15.08,0,0,0-15.06,15.06V319.74a15.08,15.08,0,0,0,15.06,15.06H209.5a15.08,15.08,0,0,0,15.06-15.06V157.06A15.08,15.08,0,0,0,209.5,142Zm9,177.74a9,9,0,0,1-9,9H119.12a9,9,0,0,1-9-9V157.06a9,9,0,0,1,9-9H209.5a9.06,9.06,0,0,1,9,9Z"/><path class="cls-1" d="M121.94,182.22l1.53-4.07h9.38l1.53,4.07a3,3,0,0,0,2.82,2,3.06,3.06,0,0,0,1.06-.2A3,3,0,0,0,140,180.1L131,156a.3.3,0,0,0,0-.08l-.06-.15a1340225375009.89,1340225375009.89,0,0,0-.14-.26l-.08-.13-.08-.11-.1-.12-.09-.11-.1-.11-.11-.1-.1-.09-.12-.1-.12-.07-.13-.09-.13-.07-.12-.07-.16-.06-.08,0h0l-.16,0-.13,0-.15,0-.14,0h-.15l-.14,0H128l-.13,0h-.16l-.13,0-.16,0-.12,0-.17,0h0l-.08,0-.15.06-.13.07-.13.07-.13.09-.11.07-.12.1-.11.09-.11.1-.1.11-.09.11-.1.12-.07.11-.09.13-.07.13a.83.83,0,0,1-.07.13l-.06.15a.79.79,0,0,0,0,.09l-9,24.1a3,3,0,1,0,5.64,2.11Zm6.22-16.58,2.43,6.49h-4.86Z"/><path class="cls-1" d="M210.56,292.82a3,3,0,0,0-3.88,1.76l-1.53,4.07h-9.38l-1.53-4.07a3,3,0,0,0-5.64,2.12l9,24.1a.05.05,0,0,1,0,0c.05.12.11.24.17.36l0,0a2.46,2.46,0,0,0,.22.34l.06.08.27.29,0,0,.29.23.06,0a1.75,1.75,0,0,0,.35.2l.05,0,.21.09.13,0,.07,0,.38.09h.07a2.83,2.83,0,0,0,.41,0h0a2.83,2.83,0,0,0,.41,0h.07a2.62,2.62,0,0,0,.38-.09l.08,0,.12,0,.21-.09.05,0a1.75,1.75,0,0,0,.35-.2l.07,0,.29-.23,0,0a3.71,3.71,0,0,0,.27-.29l.06-.08a2.46,2.46,0,0,0,.22-.34l0,0a2.92,2.92,0,0,0,.17-.36l0,0,9-24.1A3,3,0,0,0,210.56,292.82Zm-10.1,18.34L198,304.67h4.86Z"/><path class="cls-1" d="M185.4,313.71H125.15V193.21a3,3,0,0,0-6,0V316.73a3,3,0,0,0,3,3H185.4a3,3,0,0,0,0-6Z"/><path class="cls-1" d="M143.22,163.09h60.25v120.5a3,3,0,0,0,6,0V160.08a3,3,0,0,0-3-3H143.22a3,3,0,0,0,0,6Z"/><path class="cls-1" d="M423.58,295.4H387a5.58,5.58,0,0,0-5.59,4.85,5.49,5.49,0,0,0,5.45,6.11h36.61A5.58,5.58,0,0,0,429,301.5,5.48,5.48,0,0,0,423.58,295.4Z"/><path class="cls-1" d="M461.61,252.79l-10.56-29.4V147.48a5.48,5.48,0,0,0-5.48-5.48h-141a5.48,5.48,0,0,0-5.48,5.48v38.35H280.48a5.48,5.48,0,0,0-5.48,5.48V311.45A17.56,17.56,0,0,0,292.54,329l.83,0,.44,0H427.24s23.74-10.69,23.44-23.78V262.5l7.66-2.7A5.47,5.47,0,0,0,461.61,252.79ZM308,303.2l-20.56-56.84L428.9,194.54l20.55,56.85Zm110.2-117.37H334.54V174.14h83.64ZM310.07,153h130v40.16l-2.66-7.37a5.65,5.65,0,0,0-1.05-1.81,5.52,5.52,0,0,0-6-1.54l-1.23.45V168.66a5.48,5.48,0,0,0-5.47-5.48h-94.6a5.48,5.48,0,0,0-5.48,5.48v22.65a5.48,5.48,0,0,0,5.48,5.48h61.55l-29.92,11H329a5.59,5.59,0,0,0-5.35,3.85,5.68,5.68,0,0,0,5.38,7.47h1.75l-20.74,7.6V153Zm-11,43.83v33.5L286,235.1V196.79ZM286,311.28V274.35l13.15,36.36v.72a6.58,6.58,0,0,1-7.19,6.55A6.67,6.67,0,0,1,286,311.28Zm154.13-6A12.79,12.79,0,0,1,427.31,318H308.89a16.61,16.61,0,0,0,1-3.73l20.73-7.59h35a5.57,5.57,0,0,0,5.35-3.85,5.68,5.68,0,0,0-5.38-7.47h-4.89l29.92-11h32.84a5.58,5.58,0,0,0,5.59-4.85,5.48,5.48,0,0,0-5.44-6.11h-3l19.43-7.11v38.89Z"/><path class="cls-1" d="M331.05,246.43c-.57-1.55-1.86-3-3.46-2.41l-16.79,6.11c-1.64.6-3,2-2.44,3.52l11.18,30.73c.56,1.55,2.73,1.64,4.62.95s3.49-2.15,2.93-3.7l-4.54-12.48,7.3-2.66c1.6-.59,1.71-2.38,1.24-3.69-.57-1.55-1.9-2.65-3.35-2.12l-7.31,2.66-3-8.18L330,250.6C331.44,250.07,331.7,248.22,331.05,246.43Z"/><path class="cls-1" d="M368.33,265.14l-19.8-26.23c-1.14-1.49-3.62-1.52-5.85-.71s-4.1,2.42-4,4.31l1.75,32.8a2.62,2.62,0,0,0,.09.56c.65,1.79,3.89,2.1,6,1.34,1.21-.44,2-1.18,2-2.3l-.56-6.65,10.21-3.72,3.85,5.45c.66.91,1.77.95,3,.51,2.08-.76,4.36-3.07,3.71-4.86A2.44,2.44,0,0,0,368.33,265.14Zm-21-3.25-1.19-14.26,8.25,11.69Z"/><path class="cls-1" d="M397.88,253.13l-15.6-11.7,4.31-12.86a2.61,2.61,0,0,0,0-1.62c-.69-1.89-3.93-3-5.86-2.26a2.42,2.42,0,0,0-1.6,1.79L374.7,242.6,370.47,231c-.58-1.59-2.71-1.58-4.6-.9s-3.53,2.06-2.95,3.65l11.21,30.78c.56,1.55,2.73,1.64,4.62.95s3.49-2.15,2.93-3.7L378.49,253l1.08-3.35,12.85,9.57a3.11,3.11,0,0,0,3.13.45c2.18-.79,3.86-3.54,3.17-5.43A2.53,2.53,0,0,0,397.88,253.13Z"/><path class="cls-1" d="M422.9,241.93l-13,4.73-3-8.23,7.26-2.64c1.6-.58,1.71-2.38,1.24-3.69-.57-1.55-1.9-2.65-3.35-2.12l-7.26,2.64-3-8.18,13-4.72c1.45-.53,1.71-2.37,1.06-4.16-.56-1.55-1.86-3-3.46-2.42l-17.22,6.27c-1.65.6-3,2-2.45,3.52l11.19,30.73c.56,1.55,2.49,1.73,4.13,1.13l17.23-6.27c1.6-.58,1.66-2.52,1.1-4.07C425.74,242.66,424.36,241.41,422.9,241.93Z"/></svg>