<svg id="Layer_1" data-name="Layer 1" xmlns="http://www.w3.org/2000/svg" viewBox="0 0 566 483"><defs><style>.cls-1{fill:#fd3cb2;}</style></defs><title>17</title><path class="cls-1" d="M332,194.15a15.4,15.4,0,0,0,4.55,10.95,3.37,3.37,0,0,0,4.76-4.76,8.76,8.76,0,0,1,0-12.4,15.5,15.5,0,0,0,0-21.92,3.37,3.37,0,1,0-4.76,4.76,8.78,8.78,0,0,1,0,12.41A15.4,15.4,0,0,0,332,194.15Z"/><path class="cls-1" d="M406,194.15a15.36,15.36,0,0,0,4.55,10.95,3.32,3.32,0,0,0,2.38,1,3.37,3.37,0,0,0,2.38-5.75,8.74,8.74,0,0,1,0-12.4,15.5,15.5,0,0,0,0-21.92,3.37,3.37,0,0,0-4.76,4.76,8.79,8.79,0,0,1,0,12.41A15.39,15.39,0,0,0,406,194.15Z"/><path class="cls-1" d="M367.57,181.08A19.56,19.56,0,0,0,373.35,195a3.35,3.35,0,0,0,2.38,1,3.36,3.36,0,0,0,2.38-5.74,13,13,0,0,1,0-18.34,19.69,19.69,0,0,0,0-27.85,3.37,3.37,0,0,0-4.76,4.76,13,13,0,0,1,0,18.33A19.54,19.54,0,0,0,367.57,181.08Z"/><path class="cls-1" d="M439.91,274.32c.06,0,.11,0,.17,0,24.95,0,43.76-17.37,43.76-40.4a3.36,3.36,0,0,0-3.36-3.37H450q.15-3.32.15-6.73a3.36,3.36,0,0,0-3.36-3.36H355.93v-3.37a3.37,3.37,0,1,0-6.73,0v3.37H305.44a3.36,3.36,0,0,0-3.37,3.36c0,32.67,9.91,58.51,28.11,74.06H285.24a3.37,3.37,0,0,0-3.37,3.37c0,5.09,24.12,14,24.37,14.09,13.85,5,37.22,10.91,69.89,10.91,62.55,0,91.7-21.4,92.91-22.32a3.36,3.36,0,0,0-2-6.05H422.07A71.74,71.74,0,0,0,439.91,274.32Zm37-37c-1.6,16.91-15.3,29.07-34.07,30.19a113,113,0,0,0,6.71-30.19ZM376.13,319.56c-39.8,0-65.32-8.77-78.3-14.91H454.05C440.73,310.84,415.05,319.56,376.13,319.56Zm-34.61-21.64c-20.42-12.73-31.95-37.71-32.68-70.69H349.2V234h-6.74a3.37,3.37,0,0,0-3.36,3.37v25.24a3.36,3.36,0,0,0,3.36,3.37h20.2a3.37,3.37,0,0,0,3.37-3.37V237.33a3.37,3.37,0,0,0-3.37-3.37h-6.73v-6.73h87.48c-.73,33-12.26,58-32.68,70.69Zm17.77-57.23v18.52H345.83V240.69Z"/><path class="cls-1" d="M269,245h-6.08A47.39,47.39,0,0,0,217,200.63a88.25,88.25,0,0,0-2.25-9h3.87a38.56,38.56,0,0,0,38.52-38.51v-3h-8.89a38.59,38.59,0,0,0-37.69,30.58,86.42,86.42,0,0,0-13.41-20.67L192.66,164a80.84,80.84,0,0,1,18.25,36.82,47.55,47.55,0,0,0-26.75,11.71,38.69,38.69,0,0,0-14.49-19.69,42.43,42.43,0,0,1,14.4-14.32l11-6.59-16.76-1.86a25.54,25.54,0,0,0-6.66.14,42.46,42.46,0,0,1,12.44-11.39l11-6.59-16.76-1.87a26.35,26.35,0,0,0-21.08,7.3,31.6,31.6,0,0,0-7.63-12.51l-2.1-2.1-2.09,2.1a31.49,31.49,0,0,0-7.63,12.51,26.31,26.31,0,0,0-21.08-7.3l-16.76,1.87,11,6.58a42.54,42.54,0,0,1,12.45,11.4,25.54,25.54,0,0,0-6.66-.14l-16.76,1.86,11,6.59a42.55,42.55,0,0,1,14.41,14.32A38.46,38.46,0,0,0,109,224.26V245H103a8.89,8.89,0,0,0,0,17.78h.15a56.36,56.36,0,0,0,44.29,52.05V328h77V314.83a56.34,56.34,0,0,0,44.28-52.05H269A8.89,8.89,0,0,0,269,245Zm-20.74-88.88h2.83a32.65,32.65,0,0,1-32.46,29.63h-2.83A32.63,32.63,0,0,1,248.22,156.12Zm-36.33,50.56a80.77,80.77,0,0,1,.77,10.56v3.61c-3.44-1-5.92-3.74-5.92-6.95h-5.93c0,7.35,6.65,13.33,14.82,13.33s14.81-6,14.81-13.33h-5.92c0,3.21-2.49,5.92-5.93,6.95v-3.61a87.72,87.72,0,0,0-.67-10.64A41.47,41.47,0,0,1,257,245H186V224.26a37.83,37.83,0,0,0-.35-4.91A41.62,41.62,0,0,1,211.89,206.68Zm17.81,59.45a30.67,30.67,0,0,1-57.77,0l-5.43-15.2h68.63ZM145.75,245l-7.41-7.41,9.14-9.14,9.15,9.14L149.22,245Zm-8.38,0h-6.43l3.21-3.22Zm30.95-45.77-7.5,7.51-9.15-9.14,4.67-4.67A32.59,32.59,0,0,1,168.32,199.23Zm-20.84-5.82-1.65-1.65c.55,0,1.1-.09,1.65-.09s1.11.06,1.66.09Zm-8.85-.48,4.67,4.67-9.15,9.14-7.51-7.51A32.63,32.63,0,0,1,138.63,192.93Zm8.85,8.86,9.15,9.14-9.15,9.14-9.14-9.14Zm32.59,22.47V226l-1.73-1.74,1.65-1.65C180,223.16,180.07,223.71,180.07,224.26Zm0,10.12V245h-7.66l-7.4-7.41,9.14-9.14Zm-19.25-1-9.15-9.15,9.15-9.14,9.14,9.14Zm-17.52-9.15-9.15,9.15L125,224.26l9.14-9.14Zm17.52,17.52L164,245H157.6Zm18-26.38-4.67,4.67L165,210.93l7.5-7.51A32.46,32.46,0,0,1,178.82,215.4Zm-1.53-39.49a48.38,48.38,0,0,0-12.67,13.91,37.91,37.91,0,0,0-7.28-2.75A20.3,20.3,0,0,1,177.29,175.91Zm0-19.7a48.35,48.35,0,0,0-14.43,17c-.59.33-1.17.67-1.73,1l-2.14-9.6A20.24,20.24,0,0,1,177.29,156.21Zm-29.81-4.52A25.79,25.79,0,0,1,152.34,162L156,178.56a26.05,26.05,0,0,0-4.72,7.38c-1.25-.12-2.53-.19-3.82-.19s-2.56.07-3.81.19a25.86,25.86,0,0,0-4.72-7.37L142.63,162A25.91,25.91,0,0,1,147.48,151.69Zm-29.8,4.52a20.26,20.26,0,0,1,18.3,8.4l-2.14,9.61c-.56-.37-1.14-.71-1.72-1A48.35,48.35,0,0,0,117.68,156.21Zm0,19.7a20.29,20.29,0,0,1,19.95,11.16,38.94,38.94,0,0,0-7.29,2.75A48.2,48.2,0,0,0,117.68,175.91Zm4.77,27.51,7.51,7.51-9.14,9.14-4.67-4.67A32.59,32.59,0,0,1,122.45,203.42ZM115,222.61l1.65,1.65L114.89,226v-1.74C114.89,223.71,115,223.16,115,222.61Zm-.09,11.77,5.93-5.93,9.14,9.14-7.4,7.41h-7.67Zm-14.81,19.51a3,3,0,0,1,3-3h57.17l2.12,5.92H103A3,3,0,0,1,100.08,253.89ZM218.59,322H153.41v-6.24a58,58,0,0,0,5.93.32h53.32a58,58,0,0,0,5.93-.32Zm-5.93-11.85H159.34a50.38,50.38,0,0,1-50.22-47.4h55.33l1.9,5.34a36.6,36.6,0,0,0,68.93,0l1.9-5.34h25.7A50.38,50.38,0,0,1,212.66,310.18ZM269,256.85H239.3l2.11-5.92H269a3,3,0,1,1,0,5.92Z"/><path class="cls-1" d="M126,279.07l-5.13,3a44.64,44.64,0,0,0,38.48,22.22v-5.93A38.67,38.67,0,0,1,126,279.07Z"/><path class="cls-1" d="M121.71,268.07l-5.79,1.27a42.93,42.93,0,0,0,1.91,6.35l5.53-2.12A38.18,38.18,0,0,1,121.71,268.07Z"/><path class="cls-1" d="M177.11,256.85H183v5.93h-5.93Z"/><path class="cls-1" d="M191.93,274.63h5.92v5.92h-5.92Z"/><path class="cls-1" d="M203.78,259.82h5.92v5.92h-5.92Z"/><path class="cls-1" d="M221.55,256.85h5.93v5.93h-5.93Z"/></svg>