<svg id="Layer_1" data-name="Layer 1" xmlns="http://www.w3.org/2000/svg" viewBox="0 0 566 483"><defs><style>.cls-1{fill:#fd3cb2;}</style></defs><title>18</title><path class="cls-1" d="M153.37,228.13H131.56a3.12,3.12,0,0,0-3.12,3.12v31.16a3.12,3.12,0,0,0,3.12,3.12h21.81a3.12,3.12,0,0,0,3.12-3.12V231.25A3.12,3.12,0,0,0,153.37,228.13Zm-3.11,31.17H134.68V234.37h15.58V259.3Z"/><path class="cls-1" d="M206.35,228.13H184.54a3.12,3.12,0,0,0-3.12,3.12v31.16a3.12,3.12,0,0,0,3.12,3.12h21.81a3.12,3.12,0,0,0,3.12-3.12V231.25A3.12,3.12,0,0,0,206.35,228.13Zm-3.12,31.17H187.65V234.37h15.58Z"/><path class="cls-1" d="M206.35,278H184.54a3.12,3.12,0,0,0-3.12,3.12v31.16a3.12,3.12,0,0,0,3.12,3.12h21.81a3.12,3.12,0,0,0,3.12-3.12V281.11A3.12,3.12,0,0,0,206.35,278Zm-3.12,31.17H187.65V284.23h15.58Z"/><path class="cls-1" d="M256.21,228.13H234.4a3.12,3.12,0,0,0-3.12,3.12v31.16a3.12,3.12,0,0,0,3.12,3.12h21.81a3.12,3.12,0,0,0,3.12-3.12V231.25A3.12,3.12,0,0,0,256.21,228.13Zm-3.12,31.17H237.51V234.37h15.58Z"/><path class="cls-1" d="M153.37,278H131.56a3.12,3.12,0,0,0-3.12,3.12v31.16a3.12,3.12,0,0,0,3.12,3.12h21.81a3.12,3.12,0,0,0,3.12-3.12V281.11A3.12,3.12,0,0,0,153.37,278Zm-3.11,31.17H134.68V284.23h15.58v24.93Z"/><path class="cls-1" d="M256.21,278H234.4a3.12,3.12,0,0,0-3.12,3.12v31.16a3.12,3.12,0,0,0,3.12,3.12h21.81a3.12,3.12,0,0,0,3.12-3.12V281.11A3.12,3.12,0,0,0,256.21,278Zm-3.12,31.17H237.51V284.23h15.58Z"/><path class="cls-1" d="M274.91,324.74v-106H278a3.12,3.12,0,0,0,3.12-3.11V200.09A3.12,3.12,0,0,0,278,197h-3.11V184.51a3.12,3.12,0,0,0-3.12-3.12h-6.23V147.11a3.12,3.12,0,0,0-3.12-3.11H125.33a3.12,3.12,0,0,0-3.12,3.11v34.28H116a3.12,3.12,0,0,0-3.12,3.12V197h-3.11a3.12,3.12,0,0,0-3.12,3.12v15.58a3.12,3.12,0,0,0,3.12,3.11h3.11v106H100.4V331h187v-6.23ZM128.44,150.23H259.33v31.16H128.44Zm-9.34,37.39H268.67V197H119.1ZM268.67,324.74H119.1v-106H268.67v106ZM116,212.55h-3.12V203.2H274.91v9.35H116Z"/><path class="cls-1" d="M189.1,160.89a9.49,9.49,0,0,0-5.33-5.45,10.9,10.9,0,0,0-4.19-.78,11.1,11.1,0,0,0-4.2.77,9.42,9.42,0,0,0-5.35,5.46,11.75,11.75,0,0,0,0,8.26,9.68,9.68,0,0,0,2.09,3.29,9.53,9.53,0,0,0,3.26,2.16,11.67,11.67,0,0,0,8.39,0,9.45,9.45,0,0,0,3.24-2.16,9.84,9.84,0,0,0,2.09-3.29,11.89,11.89,0,0,0,0-8.26ZM185.53,168a6.26,6.26,0,0,1-1.27,2.25,5.54,5.54,0,0,1-2,1.41,7.55,7.55,0,0,1-5.35,0,5.62,5.62,0,0,1-2-1.41,6.43,6.43,0,0,1-1.28-2.25,10.16,10.16,0,0,1,0-6,6.47,6.47,0,0,1,1.28-2.26,5.62,5.62,0,0,1,2-1.41,7.55,7.55,0,0,1,5.35,0,5.54,5.54,0,0,1,2,1.41,6.46,6.46,0,0,1,1.27,2.26,10.38,10.38,0,0,1,0,6Z"/><polygon class="cls-1" points="162.5 154.88 162.5 163.6 152.99 163.6 152.99 154.88 149.19 154.88 149.19 175.16 152.99 175.16 152.99 166.29 162.5 166.29 162.5 175.16 166.3 175.16 166.3 154.88 162.5 154.88"/><polygon class="cls-1" points="228.24 172.04 228.24 154.88 224.46 154.88 224.46 175.16 236.36 175.16 236.36 172.04 228.24 172.04"/><polygon class="cls-1" points="190.01 154.88 190.01 157.98 196.14 157.98 196.14 175.16 199.91 175.16 199.91 157.98 206.01 157.98 206.01 154.88 190.01 154.88"/><polygon class="cls-1" points="221.2 157.88 221.2 154.88 208.41 154.88 208.41 175.16 221.2 175.16 221.2 172.14 212.21 172.14 212.21 166.41 219.29 166.41 219.29 163.5 212.21 163.5 212.21 157.88 221.2 157.88"/><g id="outline"><path class="cls-1" d="M325.72,330h111.9V280.27H447v-9.33h9.32a3.11,3.11,0,0,0,3.11-3.11v-41a9.33,9.33,0,1,0-6.21,0v37.87H447V255.4h-9.33V171.47a28,28,0,0,0-28-28H353.7a28,28,0,0,0-28,28V255.4H316.4v24.87h9.32ZM456.27,215a3.11,3.11,0,1,1-3.1,3.11A3.11,3.11,0,0,1,456.27,215ZM431.41,323.78H331.94V280.27h99.47ZM331.94,171.47a21.77,21.77,0,0,1,21.76-21.75h55.95a21.78,21.78,0,0,1,21.76,21.75v9.33H331.94Zm0,15.55h99.47v6.21H331.94Zm0,12.43h99.47v6.22H331.94Zm99.47,12.43V243h-28V211.88Zm-34.19,0V243H366.13V211.88Zm-65.28,0h28V243h-28Zm0,37.3h99.47v6.22H331.94Zm-9.32,24.87V261.62H440.73v12.43Z"/><polygon class="cls-1" points="351.76 218.78 345.93 223.44 340.1 218.78 336.21 223.64 340.95 227.43 336.21 231.21 340.1 236.07 345.93 231.41 351.76 236.07 355.64 231.21 350.9 227.43 355.64 223.64 351.76 218.78"/><polygon class="cls-1" points="411.59 236.07 417.42 231.41 423.25 236.07 427.13 231.21 422.4 227.43 427.13 223.64 423.25 218.78 417.42 223.44 411.59 218.78 407.71 223.64 412.44 227.43 407.71 231.21 411.59 236.07"/><polygon class="cls-1" points="374.07 236.23 381.67 231.16 389.27 236.23 392.72 231.06 387.28 227.43 392.72 223.79 389.27 218.62 381.67 223.69 374.07 218.62 370.62 223.79 376.07 227.43 370.62 231.06 374.07 236.23"/><path class="cls-1" d="M339.63,317.09a3.08,3.08,0,0,0,3,.15c.12-.06,12.33-5.89,39-5.89s38.81,5.78,39,5.91a3.11,3.11,0,0,0,4.17-1.41,3.18,3.18,0,0,0,.32-1.39V295.81a3.1,3.1,0,0,0-1.72-2.8c-.53-.25-13.41-6.53-41.8-6.53s-41.26,6.28-41.79,6.53a3.1,3.1,0,0,0-1.72,2.8v18.65A3.07,3.07,0,0,0,339.63,317.09Zm4.74-19.2A83.94,83.94,0,0,1,363,293.77v5.15h6.22v-5.76c3.73-.28,7.86-.46,12.43-.46s8.71.18,12.44.46v5.76h6.21v-5.15A83.81,83.81,0,0,1,419,297.89V310c-1.61-.52-3.7-1.11-6.21-1.69V302h-6.22v5a146.89,146.89,0,0,0-21.76-1.85v-6.27h-6.21v6.27A146.78,146.78,0,0,0,356.81,307v-5h-6.22v6.24c-2.51.58-4.61,1.17-6.22,1.69Z"/><path class="cls-1" d="M350.59,174.58h62.17V155.93H350.59Zm6.22-12.43h49.73v6.22H356.81Z"/></g></svg>