<svg id="Layer_1" data-name="Layer 1" xmlns="http://www.w3.org/2000/svg" viewBox="0 0 566 483"><defs><style>.cls-1{fill:#fd3cb2;}</style></defs><title>19</title><path class="cls-1" d="M208.2,276.62A13.55,13.55,0,0,0,189,257.46L186.52,260a18.52,18.52,0,0,1-10.2,5.2v-5.72h-6V187.78H158.4v-6.4a11.93,11.93,0,0,0,9-11.52v-.51a12,12,0,0,0-1.7-6.15l-10.25-17.07L145.17,163.2a11.9,11.9,0,0,0-1.7,6.15v.51a11.93,11.93,0,0,0,9,11.52v6.4H134.5v44.81a9,9,0,0,0,6,8.41v18.47h-6v14.94a9,9,0,0,0,9,9v6a15,15,0,0,0-14.94,14.94v9a15,15,0,0,0-14.94,14.93v3h83.64v-3a15,15,0,0,0-14.93-14.93v-9a15,15,0,0,0-14.94-14.94v-6a9,9,0,0,0,9-9v-3.19a24.38,24.38,0,0,0,14.43-7l2.52-2.52A7.57,7.57,0,1,1,204,272.4l-6.39,6.38a31.65,31.65,0,0,0-9.32,22.51,9,9,0,0,0,17.93,0v-3h-6v3a3,3,0,1,1-6,0A25.68,25.68,0,0,1,201.82,283ZM149.44,169.86v-.51a5.94,5.94,0,0,1,.85-3.07l5.12-8.54,5.13,8.54a6,6,0,0,1,.85,3.07v.51a6,6,0,0,1-11.95,0Zm-9,23.89h6v38.84a3,3,0,0,1-6,0Zm6,47.25a9,9,0,0,0,6-8.41V193.75h11.95v65.72H146.45Zm44.3,84.19H120.08a9,9,0,0,1,8.45-6H182.3A9,9,0,0,1,190.75,325.19Zm-14.43-20.91v9H134.5v-9a9,9,0,0,1,9-9h23.89A9,9,0,0,1,176.32,304.28Zm-14.93-14.94H149.44v-6h11.95Zm9-14.93a3,3,0,0,1-3,3H143.47a3,3,0,0,1-3-3v-9h29.87Z"/><path class="cls-1" d="M439.09,188a30.21,30.21,0,0,0-15.52-36.88c-.68-.18-12.31-7.57-26.75-1.75l-15.37,6.19a74.4,74.4,0,0,0-67.32,0l-15.37-6.19c-14.28-5.75-25.58,1.55-26.34,1.75A30.21,30.21,0,0,0,256.9,188c1.48,4.37,4.14,15.29-3.1,22.42l-10.63,10.47h17.67a104.46,104.46,0,0,0-4.78,30.58c0,50.81,41.11,79.5,91.73,79.5,51,0,92.13-29,92.13-79.5a104.46,104.46,0,0,0-4.78-30.58h17.27l-10.64-10.47C435.06,203.85,437.21,193.57,439.09,188Zm-91.3,130.74c-39.57,0-79.5-20.8-79.5-67.27a93.58,93.58,0,0,1,5.44-30.63,50.33,50.33,0,0,0,42.83-27.79l-10.94-5.47a37.93,37.93,0,0,1-34.1,21.08h-2.44c2.58-7.16,2.43-15.65-.59-24.59a18,18,0,0,1,9.23-21.93c.86-.24,7.63-5,16.47-1.43l20.62,8.31c1.66-.69,14.48-9.28,33-9.28s31.29,8.58,33,9.28l20.62-8.31c8.78-3.53,16.4,1.3,16.88,1.43a18,18,0,0,1,9.23,21.93c-3.05,9-3.29,17.49-.86,24.59h-2.16A38.75,38.75,0,0,1,390,187.61L379,193.08a51.07,51.07,0,0,0,43.23,27.79,93.32,93.32,0,0,1,5.44,30.63C427.69,298,387.56,318.77,347.79,318.77Z"/><path class="cls-1" d="M347.79,245.39C327.44,245.39,305,256.52,305,276s22.47,30.58,42.81,30.58,42.8-11.13,42.8-30.58S368.12,245.39,347.79,245.39Zm0,48.92c-16.58,0-30.58-8.4-30.58-18.35s14-18.34,30.58-18.34S378.36,266,378.36,276,364.36,294.31,347.79,294.31Z"/><rect class="cls-1" x="329.44" y="269.85" width="12.23" height="12.23"/><rect class="cls-1" x="304.98" y="220.92" width="12.23" height="12.23"/><rect class="cls-1" x="353.9" y="269.85" width="12.23" height="12.23"/><rect class="cls-1" x="378.36" y="220.92" width="12.23" height="12.23"/></svg>