<svg id="Layer_1" data-name="Layer 1" xmlns="http://www.w3.org/2000/svg" viewBox="0 0 566 483"><defs><style>.cls-1{fill:#fd3cb2;}</style></defs><title>20</title><path class="cls-1" d="M276.58,191.48a6.09,6.09,0,0,0-4.76-1.34,2.14,2.14,0,0,1-1.24-1.17l.33-2.28a7.82,7.82,0,0,0-8.34-8.35l-2.22.33a2.11,2.11,0,0,1-1.24-1.17l.33-2.28a7.82,7.82,0,0,0-8.34-8.35l-2.22.33a2.1,2.1,0,0,1-1.24-1.18l.33-2.27a7.82,7.82,0,0,0-8.34-8.35l-2.22.32a2,2,0,0,1-1.24-1.17l.06-.4a6,6,0,0,0-1.3-4.69,10.37,10.37,0,0,0-7-3.42,10,10,0,0,0-7.71,2.61,16.46,16.46,0,0,0-4.38,7.34c-1.51,2.66-9.81,18.17-13.2,42.9l-5-5a15.85,15.85,0,0,0-20.36-1.67l-.16-.21-1.88,1.88h0l-34.31,34.32a15.86,15.86,0,0,0,0,22.39l3.59,3.59c-9.62,1-27.21,4.29-41.82,14.63-6.4,2.32-10,6.66-9.53,11.65a10.73,10.73,0,0,0,3.52,7.25,6.1,6.1,0,0,0,4.76,1.34,2.09,2.09,0,0,1,1.23,1.17l-.33,2.28a7.82,7.82,0,0,0,8.35,8.34l2.21-.32a2.05,2.05,0,0,1,1.24,1.17l-.32,2.28A7.29,7.29,0,0,0,116,310a7.39,7.39,0,0,0,6.08,2.27l2.21-.32a2.08,2.08,0,0,1,1.24,1.17l-.32,2.28a7.82,7.82,0,0,0,8.34,8.35l2.22-.33a2.09,2.09,0,0,1,1.23,1.17l-.05.4a6,6,0,0,0,1.29,4.69,10.39,10.39,0,0,0,7,3.42c.32,0,.63,0,.94,0a10,10,0,0,0,6.7-2.59,16.18,16.18,0,0,0,4.45-7.4c1.51-2.66,9.81-18.18,13.2-42.91l4.61,4.61a15.86,15.86,0,0,0,22.4,0l0-.05h0l27.74-27.74h0l6.52-6.52a15.86,15.86,0,0,0,0-22.39L228.74,225c9.62-1,27.21-4.29,41.82-14.63,6.41-2.31,10-6.65,9.54-11.64A10.71,10.71,0,0,0,276.58,191.48Zm-78.24,83.66-40.67-54.82,14.72-14.73,4-4L217,256.45ZM151.71,320.3l-.42.7,0,.47c-.31,1.07-1.86,5.55-5.43,5.33a5.54,5.54,0,0,1-2.59-.91l.05-.4a7.26,7.26,0,0,0-2.26-6.07,7.52,7.52,0,0,0-5.24-2.33,5.83,5.83,0,0,0-.84.06l-2.22.33a2.12,2.12,0,0,1-1.24-1.18l.33-2.27a7.82,7.82,0,0,0-8.35-8.35l-2.21.33a2.1,2.1,0,0,1-1.24-1.18l.33-2.27a7.82,7.82,0,0,0-8.35-8.35l-2.21.33a2.13,2.13,0,0,1-1.24-1.18l.33-2.27a7.31,7.31,0,0,0-2.27-6.08,7.19,7.19,0,0,0-6-2.26,4.27,4.27,0,0,1-1.21-2.87c-.27-3,4.64-4.9,5.63-5.24l.55-.19.37-.27c16.78-12.05,38.86-13.87,44.38-14.14l3.51,3.5a3.24,3.24,0,0,0-1,.77c-4,4.77-6.75,4.87-12.17,5.05-1.94.07-4.13.15-6.67.47a3.16,3.16,0,0,0,.39,6.3l.4,0c2.25-.28,4.21-.35,6.1-.42a33.3,33.3,0,0,0,7-.76,37.83,37.83,0,0,0-7.17,26.93,3.16,3.16,0,0,0,3.13,2.78,2.6,2.6,0,0,0,.4,0,3.16,3.16,0,0,0,2.75-3.53c-1.43-11.44,4.27-23.86,13.25-28.89a3,3,0,0,0,1.09-1.08l3.47,3.47C162,302.76,151.81,320.12,151.71,320.3Zm41.39-39.92a9.52,9.52,0,0,1-13.44,0l-8.18-8.18-18.56-18.56-7.57-7.57a9.52,9.52,0,0,1,0-13.44l7.79-7.79,40.67,54.83Zm34.31-34.31-5.86,5.86L181,197.24a9.48,9.48,0,0,1,12.12,1.08l8.62,8.62h0l4.44,4.43,21.25,21.26a9.54,9.54,0,0,1,0,13.44Zm40.74-41.56-.91.45c-16.78,12.06-38.87,13.88-44.39,14.15l-3.44-3.44a3.14,3.14,0,0,0,1.1-.83c4-4.78,6.76-4.87,12.18-5.06,1.94-.07,4.13-.14,6.66-.46a3.17,3.17,0,0,0,2.75-3.54,3.2,3.2,0,0,0-3.53-2.75c-2.25.29-4.21.35-6.1.42a33.16,33.16,0,0,0-7,.76,37.91,37.91,0,0,0,7.17-26.93,3.16,3.16,0,1,0-6.28.79c1.43,11.44-4.27,23.86-13.26,28.89a3,3,0,0,0-1.15,1.21l-3.6-3.6c2.93-28.18,13.08-45.54,13.19-45.72l.43-.72v-.46c.33-1.09,1.95-5.6,5.43-5.32a5.69,5.69,0,0,1,2.59.9l0,.4a7.8,7.8,0,0,0,8.34,8.35l2.22-.32a2,2,0,0,1,1.23,1.17l-.32,2.28a7.81,7.81,0,0,0,8.34,8.34l2.22-.32a2.11,2.11,0,0,1,1.24,1.17l-.33,2.28a7.81,7.81,0,0,0,8.34,8.34l2.22-.32a2.08,2.08,0,0,1,1.24,1.17l-.33,2.28a7.34,7.34,0,0,0,2.27,6.08,7.24,7.24,0,0,0,6,2.25,4.34,4.34,0,0,1,1.21,2.87C274.05,202.32,269.13,204.17,268.15,204.51Z"/><path class="cls-1" d="M428.17,199.71H395.35a3,3,0,0,1-3-3v-6a3,3,0,0,1,3-3h11.93a3,3,0,0,0,3-3v-17.9a3,3,0,0,0-3-3h-8.41l2.4-14.42a3,3,0,0,0-2.94-3.48H362.52a3,3,0,0,0-2.27,1.06,3,3,0,0,0-.67,2.42L362,163.9h-8.42a3,3,0,0,0-3,3v17.9a3,3,0,0,0,3,3h11.94a3,3,0,0,1,3,3v6a3,3,0,0,1-3,3H332.69a9,9,0,0,0-9,8.95V322.05a9,9,0,0,0,9,8.95h95.48a9,9,0,0,0,8.95-8.95V208.66A9,9,0,0,0,428.17,199.71ZM366.05,152h28.76l-2,11.93H368Zm65.1,170.08a3,3,0,0,1-3,3H332.69a3,3,0,0,1-3-3V208.66a3,3,0,0,1,3-3h32.82a9,9,0,0,0,8.95-9v-6a9,9,0,0,0-8.95-8.95h-8.95V169.87H404.3v11.94h-8.95a9,9,0,0,0-9,8.95v6a9,9,0,0,0,9,9h32.82a3,3,0,0,1,3,3Z"/><path class="cls-1" d="M380.43,217.61a41.74,41.74,0,0,0-26.86,73.73v12.81a3,3,0,0,0,3,3H404.3a3,3,0,0,0,3-3V291.34a41.74,41.74,0,0,0-26.85-73.73Zm22,70a3,3,0,0,0-1.14,2.35v11.24h-6V289.23h-6v11.93h-6V289.23h-6v11.93h-6V289.23h-6v11.93h-6V289.92a3,3,0,0,0-1.14-2.35,35.8,35.8,0,1,1,44.06,0Z"/><path class="cls-1" d="M365.51,241.48a14.92,14.92,0,1,0,14.92,14.92A14.94,14.94,0,0,0,365.51,241.48Zm0,23.87a9,9,0,1,1,8.95-9A9,9,0,0,1,365.51,265.35Z"/><path class="cls-1" d="M380.43,256.4a14.92,14.92,0,1,0,14.92-14.92A14.93,14.93,0,0,0,380.43,256.4Zm23.87,0a8.95,8.95,0,1,1-8.95-8.95A9,9,0,0,1,404.3,256.4Z"/><rect class="cls-1" x="371.48" y="271.32" width="5.97" height="11.94"/><rect class="cls-1" x="383.41" y="271.32" width="5.97" height="11.94"/><path class="cls-1" d="M332.69,187.77a11.94,11.94,0,1,0-11.94,11.94A11.95,11.95,0,0,0,332.69,187.77Zm-11.94,6a6,6,0,1,1,6-6A6,6,0,0,1,320.75,193.74Z"/><path class="cls-1" d="M317.77,160.92a14.92,14.92,0,1,0-14.92,14.92A14.94,14.94,0,0,0,317.77,160.92Zm-14.92,9a8.95,8.95,0,1,1,8.95-9A9,9,0,0,1,302.85,169.87Z"/><path class="cls-1" d="M440.11,175.84A11.94,11.94,0,1,0,452,187.77,11.94,11.94,0,0,0,440.11,175.84Zm0,17.9a6,6,0,1,1,6-6A6,6,0,0,1,440.11,193.74Z"/><path class="cls-1" d="M458,146a14.92,14.92,0,1,0,14.92,14.92A14.93,14.93,0,0,0,458,146Zm0,23.87a8.95,8.95,0,1,1,8.95-9A9,9,0,0,1,458,169.87Z"/></svg>